<svg viewBox="0 0 256.02 256" xmlns="http://www.w3.org/2000/svg"><path d="M74.67 85.33A21.33 21.33 0 1 1 96 64a21.36 21.36 0 0 1-21.33 21.33zM109.33 128H40a8 8 0 0 1-8-8 24 24 0 0 1 24-24h37.33a24 24 0 0 1 24 24 8 8 0 0 1-8 8z"/><circle cx="224" cy="197.33" r="16"/><path d="M248 256h-48a8 8 0 0 1-8-8 24 24 0 0 1 24-24h16a24 24 0 0 1 24 24 8 8 0 0 1-8 8z"/><circle cx="138.67" cy="197.33" r="16"/><path d="M162.67 256h-48a8 8 0 0 1-8-8 24 24 0 0 1 24-24h16a24 24 0 0 1 24 24 8 8 0 0 1-8 8zM237.33 0h-90.67A18.68 18.68 0 0 0 128 18.67v48a18.69 18.69 0 0 0 18.67 18.67H160v24a8 8 0 0 0 13.66 5.66l29.67-29.67h34A18.69 18.69 0 0 0 256 66.67v-48A18.71 18.71 0 0 0 237.33 0zM160 53.33a10.67 10.67 0 1 1 10.67-10.66A10.67 10.67 0 0 1 160 53.33zm32 0a10.67 10.67 0 1 1 10.67-10.66A10.67 10.67 0 0 1 192 53.33zm32 0a10.67 10.67 0 1 1 10.67-10.66A10.67 10.67 0 0 1 224 53.33zm-85.33 85.34h-128a10.67 10.67 0 1 0 0 21.33h12L32 248.85a8.07 8.07 0 0 0 8 7.15h46.58a28.7 28.7 0 0 1-1.25-8 45.18 45.18 0 0 1 18.8-36.59 37 37 0 0 1 22.32-49.2l.24-2.21h12a10.67 10.67 0 0 0 0-21.33z"/></svg>