<svg viewBox="0 0 256 245.34" xmlns="http://www.w3.org/2000/svg"><path d="M32 106.67A10.67 10.67 0 0 1 24.91 88l48-42.67a10.62 10.62 0 0 1 8.37-2.61l83 10.07 47-44.56A10.66 10.66 0 0 1 226 23.74l-50.67 48a10.73 10.73 0 0 1-8.61 2.85L83.49 64.5 39.09 104a10.61 10.61 0 0 1-7.09 2.7z"/><path d="M226.67 53.34A8 8 0 0 1 221 51l-37.32-37.34A8 8 0 0 1 189.33 0h37.33a8 8 0 0 1 8 8v37.33a8 8 0 0 1-4.95 7.39 7.66 7.66 0 0 1-3.04.62zM74.67 184v29.33h-64V184A13.33 13.33 0 0 1 24 170.67h37.33A13.34 13.34 0 0 1 74.67 184zM160 120v93.33H96V120a13.33 13.33 0 0 1 13.33-13.33h37.33A13.33 13.33 0 0 1 160 120zm85.33 21.34v72h-64v-72A13.32 13.32 0 0 1 194.66 128H232a13.31 13.31 0 0 1 13.33 13.34zm2.67 104H8a8 8 0 0 1 0-16h240a8 8 0 0 1 0 16z"/></svg>