<svg viewBox="0 0 256 245.35" xmlns="http://www.w3.org/2000/svg"><path d="M216 98.68a10.61 10.61 0 0 1-7.54-3.12l-41.71-41.71-90.91 10.09a10.64 10.64 0 0 1-8.72-3L24.46 18.21A10.67 10.67 0 0 1 39.55 3.13l39 39 90.91-10.1a10.52 10.52 0 0 1 8.72 3.06l45.33 45.32A10.69 10.69 0 0 1 216 98.68z"/><path d="M226.67 106.68h-37.33A8 8 0 0 1 183.7 93L221 55.69a8 8 0 0 1 13.67 5.66v37.33a8 8 0 0 1-8 8zM245.33 184v29.32h-64V184a13.33 13.33 0 0 1 13.33-13.33H232A13.33 13.33 0 0 1 245.33 184zM160 120v93.32H96V120a13.33 13.33 0 0 1 13.33-13.33h37.33A13.33 13.33 0 0 1 160 120zm-85.33 21.35v72h-64v-72A13.33 13.33 0 0 1 24 128h37.33a13.33 13.33 0 0 1 13.34 13.35zm173.33 104H8a8 8 0 0 1 0-16h240a8 8 0 0 1 0 16z"/></svg>