<svg viewBox="0 0 226.67 227.74" xmlns="http://www.w3.org/2000/svg"><path d="M216 206.4H24a10.67 10.67 0 1 0 0 21.34h192a10.67 10.67 0 0 0 0-21.34zM89.92 195.71a31.26 31.26 0 0 0 22.18-9.17L192.61 106a10.68 10.68 0 0 0 0-15.09L104.77 3.12a10.68 10.68 0 0 0-15.09 0L9.17 83.63a31.39 31.39 0 0 0 0 44.35l58.56 58.56a31.3 31.3 0 0 0 22.19 9.17zm7.31-170L170 98.48l-1.23 1.23H23.6a9.82 9.82 0 0 1 .67-1zm76.1 142.45c0 15.2 12 27.55 26.67 27.55s26.67-12.37 26.67-27.55c0-12.24-15.29-36.4-20-43.5-3-4.5-10.4-4.5-13.36 0-4.69 7.1-19.98 31.26-19.98 43.5z"/></svg>