<svg viewBox="0 0 256.02 202.67" xmlns="http://www.w3.org/2000/svg"><path d="M245.33 181.33H10.67a10.67 10.67 0 1 0 0 21.34h234.67a10.67 10.67 0 1 0 0-21.34zM112 66.66a32.94 32.94 0 0 0 1 8H42.67v106.67H21.33V74.66a21.39 21.39 0 0 1 21.33-21.33H112zm101.33 34.67h21.33v80h-21.33z"/><circle cx="117.33" cy="117.33" r="21.33"/><path d="M160 178.66v2.67H74.67v-2.67A29.32 29.32 0 0 1 104 149.33h26.67A29.32 29.32 0 0 1 160 178.66zM237.33 0h-90.67A18.68 18.68 0 0 0 128 18.66v48a18.7 18.7 0 0 0 18.67 18.67H160v24a8 8 0 0 0 13.89 5.41l27-29.41h36.48A18.69 18.69 0 0 0 256 66.66v-48A18.68 18.68 0 0 0 237.33 0zm-72 50.66a8 8 0 1 1 8-8 8 8 0 0 1-8 8zm26.67 0a8 8 0 1 1 8-8 8 8 0 0 1-8 8zm26.67 0a8 8 0 1 1 8-8 8 8 0 0 1-8 8z"/></svg>