<svg viewBox="0 0 255.98 213.34" xmlns="http://www.w3.org/2000/svg"><path d="M104 213.34a11 11 0 0 1-2.59-.32 10.64 10.64 0 0 1-7.76-12.93l48-192a10.66 10.66 0 0 1 20.68 5.17l-48 192a10.66 10.66 0 0 1-10.33 8.08zm-29.34-32a10.57 10.57 0 0 1-7.54-3.12l-64-64a10.67 10.67 0 0 1 0-15.08l64-64a10.67 10.67 0 0 1 15.09 15.08l-56.46 56.47 56.46 56.46a10.65 10.65 0 0 1-7.55 18.19zm106.65 0a10.55 10.55 0 0 1-7.53-3.12 10.67 10.67 0 0 1 0-15.08l56.46-56.47-56.46-56.46a10.67 10.67 0 1 1 15.08-15.09l64 64a10.68 10.68 0 0 1 0 15.09l-64 64a10.58 10.58 0 0 1-7.55 3.13z"/></svg>