<svg viewBox="0 0 256 256" xmlns="http://www.w3.org/2000/svg"><path d="M245.33 117.33A10.68 10.68 0 0 0 234.66 128 106.67 106.67 0 1 1 128 21.33a114.53 114.53 0 0 1 55.78 15L170 50.05a10.66 10.66 0 0 0 7.54 18.21h46.92a10.68 10.68 0 0 0 10.68-10.67V10.68a10.66 10.66 0 0 0-18.21-7.54l-17.54 17.54A134.71 134.71 0 0 0 128 0a128 128 0 1 0 128 128 10.67 10.67 0 0 0-10.67-10.67z"/><path d="M145.78 116.36a6.65 6.65 0 0 0-6.61-6.72h-25.39V123h25.39a6.61 6.61 0 0 0 6.61-6.64zM144.5 139h-30.72v13.33h30.72a6.67 6.67 0 0 0 0-13.33z"/><path d="M206.43 82.68h-30.59a22.6 22.6 0 0 1-15.36-39.24 90.87 90.87 0 1 0 46 39.24zm-60.65 85.48v8.13a8 8 0 0 1-16 0v-8h-5.33v8a8 8 0 0 1-16 0v-8h-2.67a8 8 0 0 1-8-8v-58.65a8 8 0 0 1 8-8h2.67v-8a8 8 0 0 1 16 0v8h5.33v-8a8 8 0 0 1 16 0v9.1a22.4 22.4 0 0 1 12.68 33.2 22.52 22.52 0 0 1-12.68 40.22z"/></svg>