<svg viewBox="0 0 192 256" xmlns="http://www.w3.org/2000/svg"><path d="M149.33 117.33a10.67 10.67 0 0 1-10.67-10.67V64a42.67 42.67 0 1 0-85.33 0v42.67a10.67 10.67 0 1 1-21.33 0V64a64 64 0 0 1 128 0v42.67a10.66 10.66 0 0 1-10.67 10.66zM110.72 184H80v13.33h30.72a6.67 6.67 0 0 0 0-13.33zm1.28-22.61a6.66 6.66 0 0 0-6.61-6.72H80V168h25.39a6.64 6.64 0 0 0 6.61-6.61z"/><path d="M168 96H24a24 24 0 0 0-24 24v112a24 24 0 0 0 24 24h144a24 24 0 0 0 24-24V120a24 24 0 0 0-24-24zm-56 117.2v8.13a8 8 0 1 1-16 0v-8h-5.33v8a8 8 0 0 1-16 0v-8H72a8 8 0 0 1-8-8v-58.66a8 8 0 0 1 8-8h2.67v-8a8 8 0 0 1 16 0v8H96v-8a8 8 0 0 1 16 0v9.11A22.41 22.41 0 0 1 124.69 173 22.52 22.52 0 0 1 112 213.2z"/></svg>