<svg viewBox="0 0 256 232.19" xmlns="http://www.w3.org/2000/svg"><path d="M8.93 131A8.93 8.93 0 0 0 0 139.91v11.9a32.74 32.74 0 0 0 32.74 32.75h190.52A32.74 32.74 0 0 0 256 151.81v-11.9a8.93 8.93 0 0 0-8.93-8.93z"/><path d="M0 32.74A32.74 32.74 0 0 1 32.74 0h190.52A32.74 32.74 0 0 1 256 32.74v119.07a32.74 32.74 0 0 1-32.74 32.75H32.74A32.74 32.74 0 0 1 0 151.81zm32.74-14.88a14.88 14.88 0 0 0-14.88 14.88v119.07a14.89 14.89 0 0 0 14.88 14.89h190.52a14.89 14.89 0 0 0 14.88-14.89V32.74a14.88 14.88 0 0 0-14.88-14.88z"/><path d="M108.18 167.64a8.93 8.93 0 0 1 4 12l-23.82 47.61a8.93 8.93 0 0 1-16-8l23.84-47.62a8.92 8.92 0 0 1 12-4zm71.44 63.6a8.94 8.94 0 0 0 4-12l-23.82-47.61a8.93 8.93 0 0 0-16 8l23.81 47.63a8.93 8.93 0 0 0 12.01 3.98z"/><path d="M59.53 223.26a8.93 8.93 0 0 1 8.94-8.93h119.06a8.93 8.93 0 1 1 0 17.86H68.47a8.93 8.93 0 0 1-8.94-8.93z"/></svg>