<svg viewBox="0 0 234.69 234.67" xmlns="http://www.w3.org/2000/svg"><path d="M224 64h-64a10.68 10.68 0 1 1 0-21.35h64A10.68 10.68 0 0 1 224 64zm0-42.66h-64A10.67 10.67 0 1 1 160 0h64a10.67 10.67 0 0 1 0 21.34zm0 85.33h-64a10.67 10.67 0 1 1 0-21.33h64a10.67 10.67 0 1 1 0 21.33zm0 42.67H10.67a10.67 10.67 0 0 1 0-21.34H224a10.67 10.67 0 0 1 0 21.34zm0 42.66H10.67a10.68 10.68 0 0 1 0-21.35H224a10.68 10.68 0 0 1 0 21.35zm0 42.67H10.67a10.67 10.67 0 1 1 0-21.33H224a10.67 10.67 0 0 1 0 21.33zM112 0H16A16 16 0 0 0 0 16v74.69a16 16 0 0 0 16 16h96a16 16 0 0 0 16-16V16a16 16 0 0 0-16-16zm-5.35 21.32v43L91.52 50.75a10.69 10.69 0 0 0-14.85.56L59.34 69.47 51 61.58A10.66 10.66 0 0 0 36 62L21.34 77.28V21.34z"/></svg>