<svg viewBox="0 0 256 256" xmlns="http://www.w3.org/2000/svg"><path d="M216 0H40a8.06 8.06 0 0 0-8 8v90.67A29.32 29.32 0 0 0 61.33 128H88.1a48 48 0 0 1 79.77 0h26.77A29.32 29.32 0 0 0 224 98.67V8a8.06 8.06 0 0 0-8-8zm-40 66.67a8 8 0 0 1-4.94 7.39 7.88 7.88 0 0 1-3.06.61 8 8 0 0 1-5.66-2.33L154 64l-15.2 13.94a8 8 0 0 1-9.44 1.06L116 71.33 93.65 93.66a8 8 0 0 1-11.31-11.31L109 55.68a8 8 0 0 1 9.63-1.3l13.58 7.76 10.42-9.53-6.94-7A8 8 0 0 1 141.33 32H168a8 8 0 0 1 8 8z"/><circle cx="42.67" cy="160" r="21.33"/><path d="M71.15 196.27A44.71 44.71 0 0 0 53.34 232v2.67H8a8.06 8.06 0 0 1-8-8v-5.33A29.32 29.32 0 0 1 29.33 192H56a29.13 29.13 0 0 1 15.15 4.27z"/><circle cx="213.33" cy="160" r="21.33"/><path d="M256 221.33v5.33a8.07 8.07 0 0 1-8 8h-45.33V232a44.69 44.69 0 0 0-17.81-35.73A29.07 29.07 0 0 1 200 192h26.67A29.32 29.32 0 0 1 256 221.33z"/><circle cx="128" cy="154.67" r="32"/><path d="M157.33 202.67H98.66A29.35 29.35 0 0 0 69.33 232v16a8 8 0 0 0 8 8h101.33a8 8 0 0 0 8-8v-16a29.35 29.35 0 0 0-29.33-29.33zm80-186.67H18.67a8 8 0 0 1 0-16h218.67a8 8 0 1 1 0 16z"/></svg>