<svg viewBox="0 0 256 256" xmlns="http://www.w3.org/2000/svg"><path d="M88.74 145.39A8 8 0 0 1 82 133.14L107.14 93a8 8 0 0 1 13.55 8.5L95.5 141.63a7.94 7.94 0 0 1-6.76 3.76zM154 76.91a8 8 0 0 1-1.75-15.81l43.95-9.8a8 8 0 0 1 3.49 15.63l-44 9.81a9.41 9.41 0 0 1-1.69.17z"/><circle cx="74.67" cy="160" r="32"/><circle cx="128" cy="74.67" r="32"/><circle cx="224" cy="53.33" r="32"/><path d="M21.33 256a10.67 10.67 0 0 1-10.67-10.67V10.67a10.67 10.67 0 0 1 21.34 0v234.67A10.66 10.66 0 0 1 21.33 256z"/><path d="M245.33 245.33H10.67a10.67 10.67 0 1 1 0-21.33h234.67a10.67 10.67 0 1 1 0 21.33z"/></svg>