<svg viewBox="0 0 256 256" xmlns="http://www.w3.org/2000/svg"><path d="M11.73 256h40.53A11.73 11.73 0 0 0 64 244.27v-40.53A11.73 11.73 0 0 0 52.27 192H11.73A11.73 11.73 0 0 0 0 203.73v40.53A11.73 11.73 0 0 0 11.73 256zM96 244.27A11.73 11.73 0 0 0 107.73 256h40.53A11.73 11.73 0 0 0 160 244.27v-40.53A11.73 11.73 0 0 0 148.27 192h-40.53A11.73 11.73 0 0 0 96 203.73zM244.27 192h-40.53A11.73 11.73 0 0 0 192 203.73v40.53A11.73 11.73 0 0 0 203.73 256h40.53A11.73 11.73 0 0 0 256 244.27v-40.53A11.73 11.73 0 0 0 244.27 192zM11.73 160h40.53A11.73 11.73 0 0 0 64 148.27v-40.53A11.73 11.73 0 0 0 52.27 96H11.73A11.73 11.73 0 0 0 0 107.73v40.53A11.73 11.73 0 0 0 11.73 160zm96 0h40.53A11.73 11.73 0 0 0 160 148.27v-40.53A11.73 11.73 0 0 0 148.27 96h-40.53A11.73 11.73 0 0 0 96 107.73v40.53A11.73 11.73 0 0 0 107.73 160zm136.54-64h-40.53A11.73 11.73 0 0 0 192 107.73v40.53A11.73 11.73 0 0 0 203.73 160h40.53A11.73 11.73 0 0 0 256 148.27v-40.53A11.73 11.73 0 0 0 244.27 96zm0-96H11.73A11.73 11.73 0 0 0 0 11.73v40.53A11.73 11.73 0 0 0 11.73 64h232.53A11.73 11.73 0 0 0 256 52.27V11.73A11.73 11.73 0 0 0 244.27 0z"/></svg>