<svg viewBox="0 0 256 256" xmlns="http://www.w3.org/2000/svg"><path d="M244.27 0H150.4a11.73 11.73 0 0 0-11.73 11.73v147.2a11.73 11.73 0 0 0 11.73 11.73h93.87A11.73 11.73 0 0 0 256 158.93V11.73A11.73 11.73 0 0 0 244.27 0zM11.73 170.67h93.87a11.73 11.73 0 0 0 11.73-11.73V11.74A11.73 11.73 0 0 0 105.6 0H11.73A11.73 11.73 0 0 0 0 11.73v147.2a11.74 11.74 0 0 0 11.73 11.74zM244.27 192H11.73A11.73 11.73 0 0 0 0 203.73v40.53A11.73 11.73 0 0 0 11.73 256h232.53A11.73 11.73 0 0 0 256 244.27v-40.53A11.73 11.73 0 0 0 244.27 192z"/></svg>