<svg viewBox="0 0 256.02 256.02" xmlns="http://www.w3.org/2000/svg"><path d="M170.67 234.69h-21.33v-21.33h-42.67v21.33H85.34a10.67 10.67 0 0 0 0 21.33h85.33a10.67 10.67 0 1 0 0-21.33zm66.66-192h-57.6a74.11 74.11 0 0 1 1.6 15.36v6h53.33V192H21.33V64h53.33v-6a73.43 73.43 0 0 1 1.6-15.36h-57.6A18.74 18.74 0 0 0 0 61.34v133.33a18.76 18.76 0 0 0 18.67 18.67h218.67A18.77 18.77 0 0 0 256 194.67V61.34a18.77 18.77 0 0 0-18.67-18.65z"/><path d="M176 138.58H80a5.33 5.33 0 0 1-5.33-5.33v-12.5a26.5 26.5 0 0 1 7.81-18.86L96 88.35V58a59 59 0 0 1 12.16-35.77L123.76 2a5.52 5.52 0 0 1 8.46 0l15.6 20.29A59 59 0 0 1 160 58v30.35l13.52 13.52a26.49 26.49 0 0 1 7.81 18.87v12.49a5.32 5.32 0 0 1-5.33 5.35z"/><path d="M154.67 159.9A10.67 10.67 0 0 1 144 149.23v-16a10.67 10.67 0 0 1 21.34 0v16a10.68 10.68 0 0 1-10.67 10.67zm-53.34 0a10.67 10.67 0 0 1-10.67-10.67v-16a10.67 10.67 0 0 1 21.34 0v16a10.67 10.67 0 0 1-10.67 10.67z"/></svg>