<svg viewBox="0 0 256 256" xmlns="http://www.w3.org/2000/svg"><path d="M61.33 173v-25.3a21.33 21.33 0 1 0-16 0V176a8.14 8.14 0 0 0 1.92 5.22l30.08 35.08V248a8 8 0 0 0 16 0v-34.67a8.12 8.12 0 0 0-1.92-5.22zM128 106.67a21.31 21.31 0 0 0-8 41.07V248a8 8 0 0 0 16 0V147.74a21.31 21.31 0 0 0-8-41.07zM224 128a21.33 21.33 0 1 0-29.33 19.74V173l-30.08 35.09a8 8 0 0 0-1.92 5.21V248a8 8 0 0 0 16 0v-31.71l30.08-35.09a8 8 0 0 0 1.92-5.22v-28.25A21.29 21.29 0 0 0 224 128z"/><path d="M224 0H32A32.09 32.09 0 0 0 0 32v170.67a32.09 32.09 0 0 0 32 32h24v-10.45l-9.28-10.88H32a10.7 10.7 0 0 1-10.67-10.67V53.34h213.34v149.33A10.7 10.7 0 0 1 224 213.34h-14.72L200 224.22v10.45h24a32.09 32.09 0 0 0 32-32V32a32.09 32.09 0 0 0-32-32z"/></svg>