<svg xmlns="http://www.w3.org/2000/svg" viewBox="0 0 256 256"><g data-name="Layer 2"><path class="fill-primary" d="M162.62 162.53l17.14-27.87a10.65 10.65 0 .8-9.6 NaN NaNlNaN NaNa10.68 10.68 0 0-19.78 NaN NaNlNaN NaNa10.71 10.71 0 .8 9.6 NaN NaNlNaN NaNa18.56 18.56 0 0-9.2 NaN NaNlNaN NaNa7.94 7.94 0 7.93 9 NaN NaNhNaNa8 8 0 7.92-9.07 NaN NaNlNaN NaNa18.56 18.56 0 0-9.2 NaN NaNzm-45.29-83.91v28.05a10.67 10.67 0 1021.34 0 NaN NaNvNaNlNaN NaN NaN NaNhNaNlNaN NaNz"/><path class="fill-secondary" d="M248 0h-26.67a8 8 0 0-8 8 NaNvNaNH26.66vNaNa8 8 0 0-8-8 NaNH8a8 8 0 0-8 8 NaNvNaNa8 8 0 8 8 NaN NaNhNaNa8 8 0 8-8 NaN NaNvNaNhNaNa111.78 111.78 0 0-46.38 NaN NaNlNaN NaN NaN NaNa111.84 111.84 0 193.5 32 NaN NaNhNaNvNaNa8 8 0 8 8 NaN NaNhNaNa8 8 0 8-8 NaN NaNvNaNa8 8 0 0-8 NaN NaNz"/></g></svg>