<svg viewBox="0 0 256 256" xmlns="http://www.w3.org/2000/svg"><path d="M228.59 256h-83.84a27.81 27.81 0 0 1-19.25-7.7 26.59 26.59 0 0 1-8.16-19v-30.69a10.68 10.68 0 0 1 21.35 0v30.72a5.26 5.26 0 0 0 1.66 3.65 6.5 6.5 0 0 0 4.42 1.69h83.84A6.38 6.38 0 0 0 233 233a5.27 5.27 0 0 0 1.67-3.65V104a5.27 5.27 0 0 0-1.67-3.65l-42.31-45.76a5.79 5.79 0 0 0-4.69-1.13 10.67 10.67 0 0 1-3.92-21A27.07 27.07 0 0 1 206 39.7l42.32 45.72A26.47 26.47 0 0 1 256 104v125.33a26.62 26.62 0 0 1-8.16 19 27.79 27.79 0 0 1-19.25 7.7z"/><path d="M90.67 234.67a26.83 26.83 0 0 1-18.85-7.82l-64-64a26.63 26.63 0 0 1 0-37.7l85.33-85.33A26.83 26.83 0 0 1 112 32h64a21.26 21.26 0 0 1 5.25.64c11.79 1.79 21.41 13.06 21.41 26v64a26.8 26.8 0 0 1-7.83 18.85l-85.33 85.36a26.78 26.78 0 0 1-18.83 7.82zM112 53.33a5.34 5.34 0 0 0-3.76 1.57l-85.33 85.32a5.3 5.3 0 0 0 0 7.54l64 64a5.52 5.52 0 0 0 7.53 0l85.33-85.33a5.42 5.42 0 0 0 1.57-3.76v-64a5.16 5.16 0 0 0-4.34-5.13z"/><circle cx="154.67" cy="80" r="16"/><path d="M234.67 45.33v25.39l-21.33-23v-2.39a24 24 0 0 0-48 0V80A10.67 10.67 0 0 1 144 80V45.33a45.34 45.34 0 0 1 90.67 0z"/></svg>