<svg viewBox="0 0 255.97 256" xmlns="http://www.w3.org/2000/svg"><path d="M221.86 91a33.65 33.65 0 0 1-22.72-8.75v40.21h-27.2a43.26 43.26 0 0 0 3.73-17.71 44.8 44.8 0 1 0-86 17.71H56.85v-111A11.42 11.42 0 0 1 68.26 0h119.47a11.42 11.42 0 0 1 11.41 11.41v20.05A34.1 34.1 0 1 1 221.86 91z"/><path d="M142.79 181.25a34.13 34.13 0 0 0 33.55 40.62 33.66 33.66 0 0 0 22.75-8.77v31.52A11.41 11.41 0 0 1 187.72 256H68.28a11.41 11.41 0 0 1-11.38-11.38V213.1a34.12 34.12 0 1 1-22.75-59.5 33.71 33.71 0 0 1 22.75 8.77v-29.2H112a34.12 34.12 0 1 1 37.76 0h49.37v29.2a34.09 34.09 0 0 0-56.3 18.88z"/></svg>