<svg viewBox="0 0 256 256" xmlns="http://www.w3.org/2000/svg"><path d="M170.67 37.33V32a32.09 32.09 0 0 0-32-32H32A32.09 32.09 0 0 0 0 32v192a32.09 32.09 0 0 0 32 32h106.67a32.09 32.09 0 0 0 32-32v-69.33h-21.33v58.67h-128V32A10.7 10.7 0 0 1 32 21.33h106.69A10.7 10.7 0 0 1 149.36 32v5.33z"/><circle cx="85.33" cy="149.33" r="21.33"/><path d="M128 210.67v2.67H42.67v-2.67A29.32 29.32 0 0 1 72 181.34h26.67A29.3 29.3 0 0 1 128 210.67zm120-72a8 8 0 0 1-4.8-1.6l-19.38-14.53a18.67 18.67 0 0 1-18.49 16.13h-58.67A18.69 18.69 0 0 1 128 120V69.33c0-7.38 4.9-16 18.67-16h58.67A18.69 18.69 0 0 1 224 70.94l18.9-15.76a8 8 0 0 1 13.1 6.15v69.33a8 8 0 0 1-8 8z"/></svg>