<svg viewBox="0 0 256 234.67" xmlns="http://www.w3.org/2000/svg"><path d="M184.21 42.75L161.57 4a8 8 0 0 0-4.91-3.76 8.1 8.1 0 0 0-6.12.9L81.31 42.66z"/><path d="M32 53.33A10.67 10.67 0 0 1 32 32h36l35.63-21.33H32A32 32 0 0 0 .53 37.33 10.9 10.9 0 0 0 0 40v162.67a32.09 32.09 0 0 0 32 32h181.33a21.39 21.39 0 0 0 21.33-21.32V192H208a48 48 0 1 1 0-96h26.67V74.69a21.39 21.39 0 0 0-21.33-21.33H32zM202.67 32a21.3 21.3 0 0 0-18.45-21.12l18.45 31.79z"/><path d="M248 112h-40a32 32 0 0 0 0 64h40a8 8 0 0 0 8-8v-48a8 8 0 0 0-8-8zm-40 42.66A10.67 10.67 0 1 1 218.67 144 10.68 10.68 0 0 1 208 154.66z"/></svg>