<svg width="42" height="55" fill="none" xmlns="http://www.w3.org/2000/svg"><g clip-path="url(#clip0_103_106)" fill="#3F78E0" stroke="#3F78E0" stroke-width=".83" stroke-miterlimit="10"><path d="M4.689 42.735a1.476 1.476 0 1-.613-.373 NaNc-.92 NaN-.939 NaN-.354 NaN 8.18 NaN 9.47 NaN 10.132 NaN.036 NaN.808 NaN 1.697 NaN.889 NaN 1.582 NaN 1.546 NaN-.692 NaN-2.065 NaN-10.984 NaN-.43 NaN-1.097 NaN-1.696 NaNl.032 NaNzm12.923 6.55a1.828 1.828 0 1-.587-.321 NaNc-.986 NaN-1.124 NaN-.535 NaN 5.194 NaN 9.184 NaN 11.785 NaN.28 NaN 1.227 NaN 2.104 NaN.877 NaN 1.357 NaN 1.077 NaN-2.743 NaN-6.909 NaN-12.358 NaN-.437 NaN-1.128 NaN-1.752 NaNz"/></g><defs><clipPath id="clip0_103_106"><path fill="#fff" transform="rotate(19.164 7.878 46.669)" d="M0 0h27.436v48H0z"/></clipPath></defs></svg>