<svg width="47" height="47" fill="none" xmlns="http://www.w3.org/2000/svg"><g clip-path="url(#clip0_106_55)" stroke="#FAB758" stroke-width=".75" stroke-miterlimit="10"><path d="M27.339 39.772L6.818 22.638c-3.379-2.834-3.864-7.9-1.032-11.313 2.812-3.407 7.857-3.86 11.256-1.03l3.567 2.978 1.708-4.323c1.63-4.11 6.277-6.127 10.376-4.48 4.1 1.647 6.113 6.302 4.482 10.413L27.36 39.767l-.02.005z"/><path d="M27.589 40.755a1.037 1.037 0 1-.925-.213 NaNL5.431 NaNC2.35 NaN 1.809 NaN 4.993 NaNa8.97 8.97 0 16.083-3.216 NaN NaNcNaN NaN NaN NaN NaN NaNlNaN NaN NaN NaNcNaN NaN NaN NaN NaN NaNa8.97 8.97 0 16.88-.086 NaN NaNcNaN NaN NaN NaN NaN NaNlNaN NaNa1.037 1.037 0 1-.71 NaN NaNlNaN NaNzM10.182 9.692a6.924 6.924 0 0-3.62 2.29 NaNc-8.373 NaN-7.965 NaN-5 NaNl19.417 NaN 9.29 NaNc1.415 NaN-.348 NaN-3.936 NaNa6.818 6.818 0 0-5.295.067 NaN 6.943 6.943 0 23.22 9.34 NaN NaNlNaN NaNcNaN NaN NaN NaN NaN NaNlNaN NaNcNaN NaN NaN NaN NaN NaNa6.283 6.283 0 0-1.063 NaN NaNlNaN NaNz" fill="#FAB758"/></g><defs><clipPath id="clip0_106_55"><path fill="#fff" transform="rotate(-14.293 37.413 4.69)" d="M0 0h38v38H0z"/></clipPath></defs></svg>