<svg width="117" height="120" fill="none" xmlns="http://www.w3.org/2000/svg"><g clip-path="url(#clip0_105_31)"><path d="M115.955 19.489c-.107.586-.539 1.113-1.171 1.267-11.977 3.268-21.419 14.907-24.371 27.965 7.906 2.855 14.636 9.4 14.29 18.29-.13 3.105-1.264 5.827-3.097 7.41-2.824 2.413-7.208 2.152-10.221-.652-2.126-1.97-3.562-4.957-4.403-9.183a38.393 38.393 0 1-.243-13.574 NaNC99.647 NaN 99.198 NaN 98.77 NaNc-11.84 NaN-24.42 NaN-32.796 NaN-4.404 NaN-7.53 NaN-9.101 NaN 3.041 NaN 5.925 NaN 8.633 NaN 3.028 NaN 6.638 NaN 7.856 NaN 1.162 NaN-.59 NaN-5.558 NaN-2.06 NaN-4.29 NaN-6.387 NaN-3.384 NaN-6.414 NaN-7.718 NaN-1.546 NaN-1.667 NaN-.524 NaN-9.81 NaN-20.969 NaN-31.955 NaNa1.622 1.622 0 1-1.792-1.404 NaN 1.627 1.627 0 17.5 72.034 NaN NaNcNaN NaN NaN NaN NaN NaN NaN NaN NaN NaN NaN NaN NaN NaN NaN NaN NaN NaNlNaN NaNcNaN NaN NaN NaN NaN NaN NaN NaN NaN NaN NaN NaN NaN NaN NaN NaN NaN NaNlNaN NaNzM89.813 52.01c-.556 3.97-.457 8.027.34 11.942.7 3.527 1.835 5.955 3.447 7.427 1.552 1.427 4.193 2.043 5.905.572 1.156-1.001 1.896-2.852 1.964-5.06.272-7.018-5.227-12.396-11.65-14.914l-.006.033zM42.865 82.825c-.847 5.196-.643 10.517.676 15.436 1.037 3.891 3.459 7.362 6.013 8.635 1.293.64 2.493.69 3.755.214 3.192-1.303 4.467-6.085 3.625-9.57-1.021-4.158-4.182-7.258-6.83-9.491-2.267-1.928-4.706-3.652-7.213-5.186l-.026-.038z" fill="#605DBA"/></g><defs><clipPath id="clip0_105_31"><path fill="#fff" transform="rotate(-79.664 61.353 50.183)" d="M0 0h102.968v98.392H0z"/></clipPath></defs></svg>