<svg viewBox="0 0 635 330" xmlns="http://www.w3.org/2000/svg"><g fill="#fff"><circle cx="26.5" cy="87.4" opacity=".42" r="23"/><path d="M132.6 81.7H68.9c-3.1 0-5.6-2.5-5.6-5.6V75c0-3.1 2.5-5.6 5.6-5.6h63.7c3.1 0 5.6 2.5 5.6 5.6v1c0 3.2-2.5 5.7-5.6 5.7z" opacity=".42"/><path d="M179.9 115.6h-111c-3.1 0-5.6-2.5-5.6-5.6v-1.1c0-3.1 2.5-5.6 5.6-5.6h111c3.1 0 5.6 2.5 5.6 5.6v1.1c0 3.1-2.5 5.6-5.6 5.6zm-24.3 26H68.9c-3.1 0-5.6-2.5-5.6-5.6v-1.1c0-3.1 2.5-5.6 5.6-5.6h86.7c3.1 0 5.6 2.5 5.6 5.6v1.1c0 3.1-2.5 5.6-5.6 5.6z" opacity=".2"/><circle cx="249.5" cy="89.4" opacity=".42" r="23"/><path d="M355.6 83.7h-63.7c-3.1 0-5.6-2.5-5.6-5.6V77c0-3.1 2.5-5.6 5.6-5.6h63.7c3.1 0 5.6 2.5 5.6 5.6v1c0 3.2-2.5 5.7-5.6 5.7z" opacity=".42"/><path d="M402.9 117.6h-111c-3.1 0-5.6-2.5-5.6-5.6v-1.1c0-3.1 2.5-5.6 5.6-5.6h111c3.1 0 5.6 2.5 5.6 5.6v1.1c0 3.1-2.5 5.6-5.6 5.6zm-24.3 26h-86.7c-3.1 0-5.6-2.5-5.6-5.6v-1.1c0-3.1 2.5-5.6 5.6-5.6h86.7c3.1 0 5.6 2.5 5.6 5.6v1.1c0 3.1-2.5 5.6-5.6 5.6z" opacity=".2"/><circle cx="472.5" cy="88.4" opacity=".42" r="23"/><path d="M578.6 82.7h-63.7c-3.1 0-5.6-2.5-5.6-5.6V76c0-3.1 2.5-5.6 5.6-5.6h63.7c3.1 0 5.6 2.5 5.6 5.6v1c0 3.2-2.5 5.7-5.6 5.7z" opacity=".42"/><path d="M625.9 116.6h-111c-3.1 0-5.6-2.5-5.6-5.6v-1.1c0-3.1 2.5-5.6 5.6-5.6h111c3.1 0 5.6 2.5 5.6 5.6v1.1c0 3.1-2.5 5.6-5.6 5.6zm-24.3 26h-86.7c-3.1 0-5.6-2.5-5.6-5.6v-1.1c0-3.1 2.5-5.6 5.6-5.6h86.7c3.1 0 5.6 2.5 5.6 5.6v1.1c0 3.1-2.5 5.6-5.6 5.6z" opacity=".2"/><circle cx="26.5" cy="209.4" opacity=".42" r="23"/><path d="M132.6 203.7H68.9c-3.1 0-5.6-2.5-5.6-5.6V197c0-3.1 2.5-5.6 5.6-5.6h63.7c3.1 0 5.6 2.5 5.6 5.6v1.1c0 3.1-2.5 5.6-5.6 5.6z" opacity=".42"/><path d="M179.9 237.6h-111c-3.1 0-5.6-2.5-5.6-5.6v-1.1c0-3.1 2.5-5.6 5.6-5.6h111c3.1 0 5.6 2.5 5.6 5.6v1.1c0 3.1-2.5 5.6-5.6 5.6zm-24.3 26H68.9c-3.1 0-5.6-2.5-5.6-5.6v-1.1c0-3.1 2.5-5.6 5.6-5.6h86.7c3.1 0 5.6 2.5 5.6 5.6v1.1c0 3.1-2.5 5.6-5.6 5.6z" opacity=".2"/><circle cx="249.5" cy="211.4" opacity=".42" r="23"/><path d="M355.6 205.7h-63.7c-3.1 0-5.6-2.5-5.6-5.6V199c0-3.1 2.5-5.6 5.6-5.6h63.7c3.1 0 5.6 2.5 5.6 5.6v1.1c0 3.1-2.5 5.6-5.6 5.6z" opacity=".42"/><path d="M402.9 239.6h-111c-3.1 0-5.6-2.5-5.6-5.6v-1.1c0-3.1 2.5-5.6 5.6-5.6h111c3.1 0 5.6 2.5 5.6 5.6v1.1c0 3.1-2.5 5.6-5.6 5.6zm-24.3 26h-86.7c-3.1 0-5.6-2.5-5.6-5.6v-1.1c0-3.1 2.5-5.6 5.6-5.6h86.7c3.1 0 5.6 2.5 5.6 5.6v1.1c0 3.1-2.5 5.6-5.6 5.6z" opacity=".2"/><circle cx="472.5" cy="210.4" opacity=".42" r="23"/><path d="M578.6 204.7h-63.7c-3.1 0-5.6-2.5-5.6-5.6V198c0-3.1 2.5-5.6 5.6-5.6h63.7c3.1 0 5.6 2.5 5.6 5.6v1.1c0 3.1-2.5 5.6-5.6 5.6z" opacity=".42"/><path d="M625.9 238.6h-111c-3.1 0-5.6-2.5-5.6-5.6v-1.1c0-3.1 2.5-5.6 5.6-5.6h111c3.1 0 5.6 2.5 5.6 5.6v1.1c0 3.1-2.5 5.6-5.6 5.6zm-24.3 26h-86.7c-3.1 0-5.6-2.5-5.6-5.6v-1.1c0-3.1 2.5-5.6 5.6-5.6h86.7c3.1 0 5.6 2.5 5.6 5.6v1.1c0 3.1-2.5 5.6-5.6 5.6z" opacity=".2"/></g></svg>