<svg viewBox="0 0 635 330" xmlns="http://www.w3.org/2000/svg"><g fill="#fff"><path d="M193.1 44H8.1c-3.1 0-5.6-2.5-5.6-5.6v-1.1c0-3.1 2.5-5.6 5.6-5.6H193c3.1 0 5.6 2.5 5.6 5.6v1.1c.1 3.1-2.4 5.6-5.5 5.6z" opacity=".42"/><path d="M281.9 84.6H8.1c-3.1 0-5.6-2.5-5.6-5.6v-1.1c0-3.1 2.5-5.6 5.6-5.6h273.7c3.1 0 5.6 2.5 5.6 5.6V79c.1 3.1-2.4 5.6-5.5 5.6zm0 25.9H8.1c-3.1 0-5.6-2.5-5.6-5.6v-1.1c0-3.1 2.5-5.6 5.6-5.6h273.7c3.1 0 5.6 2.5 5.6 5.6v1.1c.1 3.1-2.4 5.6-5.5 5.6zm-54.4 25.9H8.1c-3.1 0-5.6-2.5-5.6-5.6v-1.1c0-3.1 2.5-5.6 5.6-5.6h219.4c3.1 0 5.6 2.5 5.6 5.6v1.1c0 3.1-2.5 5.6-5.6 5.6z" opacity=".2"/><path d="M538.1 44h-185c-3.1 0-5.6-2.5-5.6-5.6v-1.1c0-3.1 2.5-5.6 5.6-5.6H538c3.1 0 5.6 2.5 5.6 5.6v1.1c.1 3.1-2.4 5.6-5.5 5.6z" opacity=".42"/><path d="M626.9 84.6H353.1c-3.1 0-5.6-2.5-5.6-5.6v-1.1c0-3.1 2.5-5.6 5.6-5.6h273.7c3.1 0 5.6 2.5 5.6 5.6V79c.1 3.1-2.4 5.6-5.5 5.6zm0 25.9H353.1c-3.1 0-5.6-2.5-5.6-5.6v-1.1c0-3.1 2.5-5.6 5.6-5.6h273.7c3.1 0 5.6 2.5 5.6 5.6v1.1c.1 3.1-2.4 5.6-5.5 5.6zm-54.4 25.9H353.1c-3.1 0-5.6-2.5-5.6-5.6v-1.1c0-3.1 2.5-5.6 5.6-5.6h219.4c3.1 0 5.6 2.5 5.6 5.6v1.1c0 3.1-2.5 5.6-5.6 5.6z" opacity=".2"/><path d="M193.1 206H8.1c-3.1 0-5.6-2.5-5.6-5.6v-1.1c0-3.1 2.5-5.6 5.6-5.6H193c3.1 0 5.6 2.5 5.6 5.6v1.1c.1 3.1-2.4 5.6-5.5 5.6z" opacity=".42"/><path d="M281.9 246.6H8.1c-3.1 0-5.6-2.5-5.6-5.6v-1.1c0-3.1 2.5-5.6 5.6-5.6h273.7c3.1 0 5.6 2.5 5.6 5.6v1.1c.1 3.1-2.4 5.6-5.5 5.6zm0 25.9H8.1c-3.1 0-5.6-2.5-5.6-5.6v-1.1c0-3.1 2.5-5.6 5.6-5.6h273.7c3.1 0 5.6 2.5 5.6 5.6v1.1c.1 3.1-2.4 5.6-5.5 5.6zm-54.4 25.9H8.1c-3.1 0-5.6-2.5-5.6-5.6v-1.1c0-3.1 2.5-5.6 5.6-5.6h219.4c3.1 0 5.6 2.5 5.6 5.6v1.1c0 3.1-2.5 5.6-5.6 5.6z" opacity=".2"/><path d="M538.1 206h-185c-3.1 0-5.6-2.5-5.6-5.6v-1.1c0-3.1 2.5-5.6 5.6-5.6H538c3.1 0 5.6 2.5 5.6 5.6v1.1c.1 3.1-2.4 5.6-5.5 5.6z" opacity=".42"/><path d="M626.9 246.6H353.1c-3.1 0-5.6-2.5-5.6-5.6v-1.1c0-3.1 2.5-5.6 5.6-5.6h273.7c3.1 0 5.6 2.5 5.6 5.6v1.1c.1 3.1-2.4 5.6-5.5 5.6zm0 25.9H353.1c-3.1 0-5.6-2.5-5.6-5.6v-1.1c0-3.1 2.5-5.6 5.6-5.6h273.7c3.1 0 5.6 2.5 5.6 5.6v1.1c.1 3.1-2.4 5.6-5.5 5.6zm-54.4 25.9H353.1c-3.1 0-5.6-2.5-5.6-5.6v-1.1c0-3.1 2.5-5.6 5.6-5.6h219.4c3.1 0 5.6 2.5 5.6 5.6v1.1c0 3.1-2.5 5.6-5.6 5.6z" opacity=".2"/></g></svg>