<svg viewBox="0 0 635 330" xmlns="http://www.w3.org/2000/svg"><g fill="#fff"><circle cx="626.3" cy="265.5" opacity=".42" r="6.2"/><circle cx="608" cy="265.5" opacity=".42" r="6.2"/><circle cx="589.6" cy="265.5" opacity=".42" r="6.2"/><path d="M152.4 271.7H8.1c-3.1 0-5.6-2.5-5.6-5.6V265c0-3.1 2.5-5.6 5.6-5.6h144.2c3.1 0 5.6 2.5 5.6 5.6v1.1c.1 3-2.4 5.6-5.5 5.6z" opacity=".2"/><path d="M87.5 209.9h-70c-8.3 0-15-6.7-15-15s6.7-15 15-15h70c8.3 0 15 6.7 15 15 0 8.2-6.7 15-15 15zM71.8 70.8H8.1c-3.1 0-5.6-2.5-5.6-5.6V64c0-3.1 2.5-5.6 5.6-5.6h63.7c3.1 0 5.6 2.5 5.6 5.6v1.1c.1 3.1-2.4 5.7-5.6 5.7z" opacity=".42"/><path d="M176.3 105.7H8.1c-3.1 0-5.6-2.5-5.6-5.6V99c0-3.1 2.5-5.6 5.6-5.6h168.2c3.1 0 5.6 2.5 5.6 5.6v1.1c0 3-2.5 5.6-5.6 5.6zm0 26H8.1c-3.1 0-5.6-2.5-5.6-5.6V125c0-3.1 2.5-5.6 5.6-5.6h168.2c3.1 0 5.6 2.5 5.6 5.6v1.1c0 3-2.5 5.6-5.6 5.6zm-35.6 26H8.1c-3.1 0-5.6-2.5-5.6-5.6V151c0-3.1 2.5-5.6 5.6-5.6h132.6c3.1 0 5.6 2.5 5.6 5.6v1.1c0 3-2.5 5.6-5.6 5.6z" opacity=".2"/><path d="M353.4 70.8h-63.7c-3.1 0-5.6-2.5-5.6-5.6V64c0-3.1 2.5-5.6 5.6-5.6h63.7c3.1 0 5.6 2.5 5.6 5.6v1.1c0 3.1-2.5 5.7-5.6 5.7z" opacity=".42"/><path d="M376.8 105.7h-87.2c-3.1 0-5.6-2.5-5.6-5.6V99c0-3.1 2.5-5.6 5.6-5.6h87.2c3.1 0 5.6 2.5 5.6 5.6v1.1c.1 3-2.4 5.6-5.6 5.6zm-.4 26h-86.7c-3.1 0-5.6-2.5-5.6-5.6V125c0-3.1 2.5-5.6 5.6-5.6h86.7c3.1 0 5.6 2.5 5.6 5.6v1.1c0 3-2.5 5.6-5.6 5.6zm-23 26h-63.7c-3.1 0-5.6-2.5-5.6-5.6V151c0-3.1 2.5-5.6 5.6-5.6h63.7c3.1 0 5.6 2.5 5.6 5.6v1.1c0 3-2.5 5.6-5.6 5.6z" opacity=".2"/><path d="M478.4 70.8h-63.7c-3.1 0-5.6-2.5-5.6-5.6V64c0-3.1 2.5-5.6 5.6-5.6h63.7c3.1 0 5.6 2.5 5.6 5.6v1.1c0 3.1-2.5 5.7-5.6 5.7z" opacity=".42"/><path d="M501.8 105.7h-87.2c-3.1 0-5.6-2.5-5.6-5.6V99c0-3.1 2.5-5.6 5.6-5.6h87.2c3.1 0 5.6 2.5 5.6 5.6v1.1c.1 3-2.4 5.6-5.6 5.6zm-.4 26h-86.7c-3.1 0-5.6-2.5-5.6-5.6V125c0-3.1 2.5-5.6 5.6-5.6h86.7c3.1 0 5.6 2.5 5.6 5.6v1.1c0 3-2.5 5.6-5.6 5.6zm-23 26h-63.7c-3.1 0-5.6-2.5-5.6-5.6V151c0-3.1 2.5-5.6 5.6-5.6h63.7c3.1 0 5.6 2.5 5.6 5.6v1.1c0 3-2.5 5.6-5.6 5.6zm125 0h-63.7c-3.1 0-5.6-2.5-5.6-5.6V151c0-3.1 2.5-5.6 5.6-5.6h63.7c3.1 0 5.6 2.5 5.6 5.6v1.1c0 3-2.5 5.6-5.6 5.6z" opacity=".2"/><path d="M603.4 70.8h-63.7c-3.1 0-5.6-2.5-5.6-5.6V64c0-3.1 2.5-5.6 5.6-5.6h63.7c3.1 0 5.6 2.5 5.6 5.6v1.1c0 3.1-2.5 5.7-5.6 5.7z" opacity=".42"/><path d="M626.8 105.7h-87.2c-3.1 0-5.6-2.5-5.6-5.6V99c0-3.1 2.5-5.6 5.6-5.6h87.2c3.1 0 5.6 2.5 5.6 5.6v1.1c.1 3-2.4 5.6-5.6 5.6zm-.4 26h-86.7c-3.1 0-5.6-2.5-5.6-5.6V125c0-3.1 2.5-5.6 5.6-5.6h86.7c3.1 0 5.6 2.5 5.6 5.6v1.1c0 3-2.5 5.6-5.6 5.6z" opacity=".2"/></g></svg>