<svg viewBox="0 0 635 330" xmlns="http://www.w3.org/2000/svg"><g fill="#fff"><path d="M463.9 126.5H171.1c-3.1 0-5.6-2.5-5.6-5.6v-1.1c0-3.1 2.5-5.6 5.6-5.6h292.7c3.1 0 5.6 2.5 5.6 5.6v1.1c.1 3.1-2.4 5.6-5.5 5.6zm-35.7 22.9H206.8c-3.1 0-5.6-2.5-5.6-5.6v-1.1c0-3.1 2.5-5.6 5.6-5.6h221.4c3.1 0 5.6 2.5 5.6 5.6v1.1c.1 3.1-2.5 5.6-5.6 5.6z" opacity=".42"/><path d="M514.9 186.6H120.1c-3.1 0-5.6-2.5-5.6-5.6v-1.1c0-3.1 2.5-5.6 5.6-5.6h394.8c3.1 0 5.6 2.5 5.6 5.6v1.1c0 3-2.5 5.6-5.6 5.6zm-13 25.9H133.1c-3.1 0-5.6-2.5-5.6-5.6v-1.1c0-3.1 2.5-5.6 5.6-5.6h368.8c3.1 0 5.6 2.5 5.6 5.6v1.1c0 3-2.5 5.6-5.6 5.6zm-11 25.9H144.1c-3.1 0-5.6-2.5-5.6-5.6v-1.1c0-3.1 2.5-5.6 5.6-5.6h346.8c3.1 0 5.6 2.5 5.6 5.6v1.1c0 3-2.5 5.6-5.6 5.6z" opacity=".2"/><circle cx="317.5" cy="57.2" opacity=".42" r="23"/><path d="M352.5 295.8h-70c-8.3 0-15-6.7-15-15s6.7-15 15-15h70c8.3 0 15 6.7 15 15 0 8.2-6.7 15-15 15z" opacity=".42"/></g></svg>