<svg viewBox="0 0 635 330" xmlns="http://www.w3.org/2000/svg"><g fill="#fff"><path d="M178 142.9H17.5c-8.3 0-15-6.7-15-15V32.5c0-8.3 6.7-15 15-15H178c8.3 0 15 6.7 15 15v95.4c0 8.3-6.7 15-15 15zm219.8 0H237.2c-8.3 0-15-6.7-15-15V32.5c0-8.3 6.7-15 15-15h160.5c8.3 0 15 6.7 15 15v95.4c.1 8.3-6.6 15-14.9 15zm219.7 0H457c-8.3 0-15-6.7-15-15V32.5c0-8.3 6.7-15 15-15h160.5c8.3 0 15 6.7 15 15v95.4c0 8.3-6.7 15-15 15z" opacity=".2"/><path d="M67.2 103.2h61.2c2.1 0 3.8-1.7 3.8-3.8 0-1-.4-2-1.1-2.7l-15.3-15.3c-1.5-1.5-3.9-1.5-5.4 0l-5 5-12.6-12.7c-1.5-1.5-3.9-1.5-5.4 0l-22.9 23c-1.5 1.5-1.5 3.9.1 5.4.6.7 1.6 1 2.6 1.1z" opacity=".42"/><circle cx="116.9" cy="64.9" opacity=".42" r="7.6"/><path d="M286.9 103.2H348c2.1 0 3.8-1.7 3.8-3.8 0-1-.4-2-1.1-2.7l-15.3-15.3c-1.5-1.5-3.9-1.5-5.4 0l-5 5-12.6-12.6c-1.5-1.5-3.9-1.5-5.4 0l-22.9 22.9c-1.5 1.5-1.5 3.9.1 5.4.8.7 1.7 1 2.7 1.1z" opacity=".42"/><circle cx="336.6" cy="64.9" opacity=".42" r="7.6"/><path d="M506.6 103.2h61.2c2.1 0 3.8-1.7 3.8-3.8 0-1-.4-2-1.1-2.7l-15.3-15.3c-1.5-1.5-3.9-1.5-5.4 0l-5 5-12.6-12.6c-1.5-1.5-3.9-1.5-5.4 0l-22.9 22.9c-1.5 1.5-1.5 3.9.1 5.4.7.7 1.6 1 2.6 1.1z" opacity=".42"/><circle cx="556.3" cy="64.9" opacity=".42" r="7.6"/><circle cx="297.2" cy="305.5" opacity=".2" r="7"/><circle cx="317.5" cy="305.5" opacity=".2" r="7"/><circle cx="337.8" cy="305.5" opacity=".2" r="7"/><path d="M141.9 186.2H8.1c-3.1 0-5.6-2.5-5.6-5.6V179c0-3.1 2.5-5.6 5.6-5.6h133.7c3.1 0 5.6 2.5 5.6 5.6v1.5c.1 3.1-2.4 5.7-5.5 5.7z" opacity=".42"/><path d="M187.4 219.4H8.1c-3.1 0-5.6-2.5-5.6-5.6v-1.2c0-3.1 2.5-5.6 5.6-5.6h179.3c3.1 0 5.6 2.5 5.6 5.6v1.2c0 3.1-2.5 5.6-5.6 5.6zm0 26H8.1c-3.1 0-5.6-2.5-5.6-5.6v-1.2c0-3.1 2.5-5.6 5.6-5.6h179.3c3.1 0 5.6 2.5 5.6 5.6v1.2c0 3.1-2.5 5.6-5.6 5.6zm-80.5 26H8.1c-3.1 0-5.6-2.5-5.6-5.6v-1.2c0-3.1 2.5-5.6 5.6-5.6h98.7c3.1 0 5.6 2.5 5.6 5.6v1.2c.1 3.1-2.4 5.6-5.5 5.6z" opacity=".2"/><path d="M361.6 186.2H227.9c-3.1 0-5.6-2.5-5.6-5.6V179c0-3.1 2.5-5.6 5.6-5.6h133.7c3.1 0 5.6 2.5 5.6 5.6v1.5c0 3.1-2.5 5.7-5.6 5.7z" opacity=".42"/><path d="M407.1 219.4H227.9c-3.1 0-5.6-2.5-5.6-5.6v-1.2c0-3.1 2.5-5.6 5.6-5.6h179.3c3.1 0 5.6 2.5 5.6 5.6v1.2c0 3.1-2.6 5.6-5.7 5.6zm0 26H227.9c-3.1 0-5.6-2.5-5.6-5.6v-1.2c0-3.1 2.5-5.6 5.6-5.6h179.3c3.1 0 5.6 2.5 5.6 5.6v1.2c0 3.1-2.6 5.6-5.7 5.6zm-80.5 26h-98.7c-3.1 0-5.6-2.5-5.6-5.6v-1.2c0-3.1 2.5-5.6 5.6-5.6h98.7c3.1 0 5.6 2.5 5.6 5.6v1.2c0 3.1-2.5 5.6-5.6 5.6z" opacity=".2"/><path d="M581.3 186.2H447.6c-3.1 0-5.6-2.5-5.6-5.6V179c0-3.1 2.5-5.6 5.6-5.6h133.7c3.1 0 5.6 2.5 5.6 5.6v1.5c.1 3.1-2.5 5.7-5.6 5.7z" opacity=".42"/><path d="M626.9 219.4H447.6c-3.1 0-5.6-2.5-5.6-5.6v-1.2c0-3.1 2.5-5.6 5.6-5.6h179.3c3.1 0 5.6 2.5 5.6 5.6v1.2c0 3.1-2.5 5.6-5.6 5.6zm0 26H447.6c-3.1 0-5.6-2.5-5.6-5.6v-1.2c0-3.1 2.5-5.6 5.6-5.6h179.3c3.1 0 5.6 2.5 5.6 5.6v1.2c0 3.1-2.5 5.6-5.6 5.6zm-80.6 26h-98.7c-3.1 0-5.6-2.5-5.6-5.6v-1.2c0-3.1 2.5-5.6 5.6-5.6h98.7c3.1 0 5.6 2.5 5.6 5.6v1.2c.1 3.1-2.5 5.6-5.6 5.6z" opacity=".2"/></g></svg>