<svg viewBox="0 0 635 330" xmlns="http://www.w3.org/2000/svg"><g fill="#fff"><path d="M332.5 171.9h-106c-1.1 0-2-.9-2-2s.9-2 2-2h106c1.1 0 2 .9 2 2s-.9 2-2 2zm169.9-2h-106c-1.1 0-2-.9-2-2s.9-2 2-2h106c1.1 0 2 .9 2 2s-.9 2-2 2zm-339.8 2h-106c-1.1 0-2-.9-2-2s.9-2 2-2h106c1.1 0 2 .9 2 2s-.9 2-2 2z" opacity=".2"/><circle cx="24.6" cy="169.5" opacity=".42" r="23"/><circle cx="194.5" cy="169.5" opacity=".42" r="23"/><circle cx="364.5" cy="169.5" opacity=".42" r="23"/><path d="M534.4 192.5c-12.7 0-23-10.3-23-23s10.3-23 23-23 23 10.3 23 23-10.3 23-23 23m46.3 35.3H517c-3.1 0-5.6-2.5-5.6-5.6V221c0-3.1 2.5-5.6 5.6-5.6h63.7c3.1 0 5.6 2.5 5.6 5.6v1.1c.1 3.2-2.5 5.7-5.6 5.7z" opacity=".42"/><path d="M628 261.7H517c-3.1 0-5.6-2.5-5.6-5.6V255c0-3.1 2.5-5.6 5.6-5.6h111c3.1 0 5.6 2.5 5.6 5.6v1.1c0 3.1-2.5 5.6-5.6 5.6zm-24.3 26H517c-3.1 0-5.6-2.5-5.6-5.6V281c0-3.1 2.5-5.6 5.6-5.6h86.7c3.1 0 5.6 2.5 5.6 5.6v1.1c.1 3.1-2.5 5.6-5.6 5.6z" opacity=".2"/><path d="M410.7 227.8H347c-3.1 0-5.6-2.5-5.6-5.6V221c0-3.1 2.5-5.6 5.6-5.6h63.7c3.1 0 5.6 2.5 5.6 5.6v1.1c.1 3.2-2.5 5.7-5.6 5.7z" opacity=".42"/><path d="M458 261.7H347c-3.1 0-5.6-2.5-5.6-5.6V255c0-3.1 2.5-5.6 5.6-5.6h111c3.1 0 5.6 2.5 5.6 5.6v1.1c0 3.1-2.5 5.6-5.6 5.6zm-24.3 26H347c-3.1 0-5.6-2.5-5.6-5.6V281c0-3.1 2.5-5.6 5.6-5.6h86.7c3.1 0 5.6 2.5 5.6 5.6v1.1c.1 3.1-2.5 5.6-5.6 5.6z" opacity=".2"/><path d="M240.7 227.8H177c-3.1 0-5.6-2.5-5.6-5.6V221c0-3.1 2.5-5.6 5.6-5.6h63.7c3.1 0 5.6 2.5 5.6 5.6v1.1c.1 3.2-2.5 5.7-5.6 5.7z" opacity=".42"/><path d="M288 261.7H177c-3.1 0-5.6-2.5-5.6-5.6V255c0-3.1 2.5-5.6 5.6-5.6h111c3.1 0 5.6 2.5 5.6 5.6v1.1c0 3.1-2.5 5.6-5.6 5.6zm-24.3 26H177c-3.1 0-5.6-2.5-5.6-5.6V281c0-3.1 2.5-5.6 5.6-5.6h86.7c3.1 0 5.6 2.5 5.6 5.6v1.1c.1 3.1-2.5 5.6-5.6 5.6z" opacity=".2"/><path d="M70.7 227.8H7c-3.1 0-5.6-2.5-5.6-5.6V221c0-3.1 2.5-5.6 5.6-5.6h63.7c3.1 0 5.6 2.5 5.6 5.6v1.1c.1 3.2-2.5 5.7-5.6 5.7z" opacity=".42"/><path d="M118 261.7H7c-3.1 0-5.6-2.5-5.6-5.6V255c0-3.1 2.5-5.6 5.6-5.6h111c3.1 0 5.6 2.5 5.6 5.6v1.1c0 3.1-2.5 5.6-5.6 5.6zm-24.3 26H7c-3.1 0-5.6-2.5-5.6-5.6V281c0-3.1 2.5-5.6 5.6-5.6h86.7c3.1 0 5.6 2.5 5.6 5.6v1.1c.1 3.1-2.5 5.6-5.6 5.6z" opacity=".2"/><path d="M192.2 54.7H7.3c-3.1 0-5.6-2.5-5.6-5.6V48c0-3.1 2.5-5.6 5.6-5.6h184.9c3.1 0 5.6 2.5 5.6 5.6v1.1c.1 3.1-2.5 5.6-5.6 5.6z" opacity=".42"/><path d="M281 90.3H7.3c-3.1 0-5.6-2.5-5.6-5.6v-1.1c0-3.1 2.5-5.6 5.6-5.6H281c3.1 0 5.6 2.5 5.6 5.6v1.1c0 3.1-2.5 5.6-5.6 5.6z" opacity=".2"/></g></svg>