<svg viewBox="0 0 635 330" xmlns="http://www.w3.org/2000/svg"><g fill="#fff"><path d="M176.5 311.1h-157c-9.4 0-17-7.6-17-16.9V35.9c0-9.3 7.6-16.9 17-16.9h157c9.4 0 17 7.6 17 16.9v258.3c0 9.3-7.6 16.9-17 16.9zm220 15.9h-157c-9.4 0-17-7.6-17-16.9V19.9c0-9.3 7.6-16.9 17-16.9h157c9.4 0 17 7.6 17 16.9v290.2c0 9.3-7.6 16.9-17 16.9zm219-14.9h-157c-9.4 0-17-7.6-17-16.9V36.8c0-9.3 7.6-16.9 17-16.9h157c9.4 0 17 7.6 17 16.9v258.3c0 9.4-7.6 17-17 17z" opacity=".1"/><circle cx="51.7" cy="171.9" opacity=".42" r="6.2"/><path d="M144.9 178.1H70.6c-3.1 0-5.6-2.5-5.6-5.6v-1.1c0-3.1 2.5-5.6 5.6-5.6h74.3c3.1 0 5.6 2.5 5.6 5.6v1.1c0 3.1-2.5 5.6-5.6 5.6z" opacity=".2"/><circle cx="51.9" cy="201.8" opacity=".42" r="6.2"/><path d="M144.6 207.9H70.7c-3.1 0-5.6-2.5-5.6-5.6v-1.1c0-3.1 2.5-5.6 5.6-5.6h73.9c3.1 0 5.6 2.5 5.6 5.6v1.1c.1 3.1-2.4 5.6-5.6 5.6z" opacity=".2"/><circle cx="98" cy="77.6" opacity=".42" r="23"/><path d="M124.9 129.5H71.1c-3.1 0-5.6-2.5-5.6-5.6v-1.1c0-3.1 2.5-5.6 5.6-5.6h53.7c3.1 0 5.6 2.5 5.6 5.6v1.1c.1 3.1-2.4 5.6-5.5 5.6zm-1.4 144.2H73.3c-8.2 0-14.9-6.7-14.9-14.9s6.7-14.9 14.9-14.9h50.2c8.2 0 14.9 6.7 14.9 14.9s-6.6 14.9-14.9 14.9z" opacity=".42"/><circle cx="271.2" cy="171.7" opacity=".42" r="6.2"/><path d="M364.4 177.9H290c-3.1 0-5.6-2.5-5.6-5.6v-1.1c0-3.1 2.5-5.6 5.6-5.6h74.3c3.1 0 5.6 2.5 5.6 5.6v1.1c.1 3.1-2.4 5.6-5.5 5.6z" opacity=".2"/><circle cx="271.2" cy="201.6" opacity=".42" r="6.2"/><path d="M364.1 207.8h-73.9c-3.1 0-5.6-2.5-5.6-5.6v-1.1c0-3.1 2.5-5.6 5.6-5.6h73.9c3.1 0 5.6 2.5 5.6 5.6v1.1c.1 3.1-2.4 5.6-5.6 5.6z" opacity=".2"/><circle cx="318" cy="77.2" opacity=".42" r="23"/><path d="M344.9 129.2h-53.7c-3.1 0-5.6-2.5-5.6-5.6v-1.1c0-3.1 2.5-5.6 5.6-5.6h53.7c3.1 0 5.6 2.5 5.6 5.6v1.1c0 3.1-2.5 5.6-5.6 5.6zm-1.4 144.5h-50.1c-8.2 0-14.9-6.7-14.9-14.9s6.7-14.9 14.9-14.9h50.1c8.2 0 14.9 6.7 14.9 14.9s-6.7 14.9-14.9 14.9z" opacity=".42"/><circle cx="490.2" cy="172.7" opacity=".42" r="6.2"/><path d="M583.4 178.9H509c-3.1 0-5.6-2.5-5.6-5.6v-1.1c0-3.1 2.5-5.6 5.6-5.6h74.3c3.1 0 5.6 2.5 5.6 5.6v1.1c.1 3.1-2.4 5.6-5.5 5.6z" opacity=".2"/><circle cx="490.4" cy="202.6" opacity=".42" r="6.2"/><path d="M583.1 208.8h-73.9c-3.1 0-5.6-2.5-5.6-5.6V202c0-3.1 2.5-5.6 5.6-5.6h73.9c3.1 0 5.6 2.5 5.6 5.6v1.1c.1 3.2-2.4 5.7-5.6 5.7z" opacity=".2"/><circle cx="537" cy="78.2" opacity=".42" r="23"/><path d="M563.9 130.2h-53.7c-3.1 0-5.6-2.5-5.6-5.6v-1.1c0-3.1 2.5-5.6 5.6-5.6h53.7c3.1 0 5.6 2.5 5.6 5.6v1.1c0 3.1-2.5 5.6-5.6 5.6zm-1.4 144.5h-50.1c-8.2 0-14.9-6.7-14.9-14.9s6.7-14.9 14.9-14.9h50.1c8.2 0 14.9 6.7 14.9 14.9s-6.7 14.9-14.9 14.9z" opacity=".42"/></g></svg>