<svg viewBox="0 0 635 330" xmlns="http://www.w3.org/2000/svg"><g fill="#fff"><path d="M615.6 99H19.4c-9.3 0-16.9-7.6-16.9-16.9V45.9c0-9.3 7.6-16.9 16.9-16.9h596.2c9.3 0 16.9 7.6 16.9 16.9v36.2c0 9.3-7.6 16.9-16.9 16.9z" opacity=".1"/><circle cx="601.3" cy="64" opacity=".42" r="6.2"/><circle cx="219" cy="64" opacity=".42" r="6.2"/><path d="M297 70.2h-58.7c-3.1 0-5.6-2.5-5.6-5.6v-1.1c0-3.1 2.5-5.6 5.6-5.6H297c3.1 0 5.6 2.5 5.6 5.6v1.1c.1 3.1-2.5 5.6-5.6 5.6z" opacity=".2"/><circle cx="391.2" cy="64" opacity=".42" r="6.2"/><path d="M468.5 70.2h-58.7c-3.1 0-5.6-2.5-5.6-5.6v-1.1c0-3.1 2.5-5.6 5.6-5.6h58.7c3.1 0 5.6 2.5 5.6 5.6v1.1c0 3.1-2.5 5.6-5.6 5.6zm-330.2 0H79.6c-3.1 0-5.6-2.5-5.6-5.6v-1.1c0-3.1 2.5-5.6 5.6-5.6h58.7c3.1 0 5.6 2.5 5.6 5.6v1.1c0 3.1-2.5 5.6-5.6 5.6z" opacity=".2"/><circle cx="45.9" cy="64" opacity=".42" r="18"/><path d="M615.6 200H19.4c-9.3 0-16.9-7.6-16.9-16.9v-36.2c0-9.3 7.6-16.9 16.9-16.9h596.2c9.3 0 16.9 7.6 16.9 16.9v36.2c0 9.3-7.6 16.9-16.9 16.9z" opacity=".1"/><circle cx="601.3" cy="165" opacity=".42" r="6.2"/><circle cx="219" cy="165" opacity=".42" r="6.2"/><path d="M297 171.2h-58.7c-3.1 0-5.6-2.5-5.6-5.6v-1.1c0-3.1 2.5-5.6 5.6-5.6H297c3.1 0 5.6 2.5 5.6 5.6v1.1c.1 3.1-2.5 5.6-5.6 5.6z" opacity=".2"/><circle cx="391.2" cy="165" opacity=".42" r="6.2"/><path d="M468.5 171.2h-58.7c-3.1 0-5.6-2.5-5.6-5.6v-1.1c0-3.1 2.5-5.6 5.6-5.6h58.7c3.1 0 5.6 2.5 5.6 5.6v1.1c0 3.1-2.5 5.6-5.6 5.6zm-330.2 0H79.6c-3.1 0-5.6-2.5-5.6-5.6v-1.1c0-3.1 2.5-5.6 5.6-5.6h58.7c3.1 0 5.6 2.5 5.6 5.6v1.1c0 3.1-2.5 5.6-5.6 5.6z" opacity=".2"/><circle cx="45.9" cy="165" opacity=".42" r="18"/><path d="M615.6 301H19.4c-9.3 0-16.9-7.6-16.9-16.9v-36.2c0-9.3 7.6-16.9 16.9-16.9h596.2c9.3 0 16.9 7.6 16.9 16.9v36.2c0 9.3-7.6 16.9-16.9 16.9z" opacity=".1"/><circle cx="601.3" cy="266" opacity=".42" r="6.2"/><circle cx="219" cy="266" opacity=".42" r="6.2"/><path d="M297 272.2h-58.7c-3.1 0-5.6-2.5-5.6-5.6v-1.1c0-3.1 2.5-5.6 5.6-5.6H297c3.1 0 5.6 2.5 5.6 5.6v1.1c.1 3.1-2.5 5.6-5.6 5.6z" opacity=".2"/><circle cx="391.2" cy="266" opacity=".42" r="6.2"/><path d="M468.5 272.2h-58.7c-3.1 0-5.6-2.5-5.6-5.6v-1.1c0-3.1 2.5-5.6 5.6-5.6h58.7c3.1 0 5.6 2.5 5.6 5.6v1.1c0 3.1-2.5 5.6-5.6 5.6zm-330.2 0H79.6c-3.1 0-5.6-2.5-5.6-5.6v-1.1c0-3.1 2.5-5.6 5.6-5.6h58.7c3.1 0 5.6 2.5 5.6 5.6v1.1c0 3.1-2.5 5.6-5.6 5.6z" opacity=".2"/><circle cx="45.9" cy="266" opacity=".42" r="18"/></g></svg>