<svg viewBox="0 0 635 330" xmlns="http://www.w3.org/2000/svg"><g fill="#fff"><path d="M266.6 310H17.5c-8.3 0-15-6.7-15-15V35c0-8.3 6.7-15 15-15h249.1c8.3 0 15 6.7 15 15v260c0 8.3-6.7 15-15 15z" opacity=".2"/><path d="M70 221.1h143.9c5 0 9-4.1 9-9.3 0-2.5-.9-4.9-2.7-6.7l-36-37.4c-3.5-3.6-9.2-3.6-12.7 0l-11.7 12.2-29.6-30.7c-3.5-3.6-9.2-3.6-12.7 0l-54 56.1c-3.5 3.7-3.4 9.6.1 13.2 1.9 1.6 4.1 2.5 6.4 2.6z" opacity=".42"/><ellipse cx="186.9" cy="127.6" opacity=".42" rx="18" ry="18.7"/><path d="M626.9 57H334.2c-3.1 0-5.6-2.5-5.6-5.6v-1.1c0-3.1 2.5-5.6 5.6-5.6h292.7c3.1 0 5.6 2.5 5.6 5.6v1.1c0 3.1-2.5 5.6-5.6 5.6zm-94.7 25.9h-198c-3.1 0-5.6-2.5-5.6-5.6v-1.1c0-3.1 2.5-5.6 5.6-5.6h198c3.1 0 5.6 2.5 5.6 5.6v1.1c0 3.1-2.5 5.6-5.6 5.6z" opacity=".42"/><path d="M626.9 130.5H334.2c-3.1 0-5.6-2.5-5.6-5.6v-1.1c0-3.1 2.5-5.6 5.6-5.6h292.7c3.1 0 5.6 2.5 5.6 5.6v1.1c0 3-2.5 5.6-5.6 5.6zm0 25.8H334.2c-3.1 0-5.6-2.5-5.6-5.6v-1.1c0-3.1 2.5-5.6 5.6-5.6h292.7c3.1 0 5.6 2.5 5.6 5.6v1.1c0 3.1-2.5 5.6-5.6 5.6zm0 25.9H334.2c-3.1 0-5.6-2.5-5.6-5.6v-1.1c0-3.1 2.5-5.6 5.6-5.6h292.7c3.1 0 5.6 2.5 5.6 5.6v1.1c0 3.1-2.5 5.6-5.6 5.6zm-58 25.9H334.2c-3.1 0-5.6-2.5-5.6-5.6v-1.1c0-3.1 2.5-5.6 5.6-5.6h234.7c3.1 0 5.6 2.5 5.6 5.6v1.1c0 3.1-2.5 5.6-5.6 5.6z" opacity=".2"/><circle cx="351.5" cy="262.4" opacity=".42" r="23"/><path d="M458.6 255.7h-66.7c-3.1 0-5.6-2.5-5.6-5.6V249c0-3.1 2.5-5.6 5.6-5.6h66.7c3.1 0 5.6 2.5 5.6 5.6v1.1c.1 3.1-2.5 5.6-5.6 5.6zm-22 25.9h-44.7c-3.1 0-5.6-2.5-5.6-5.6v-1.1c0-3.1 2.5-5.6 5.6-5.6h44.7c3.1 0 5.6 2.5 5.6 5.6v1.1c.1 3.1-2.5 5.6-5.6 5.6z" opacity=".2"/><circle cx="519.7" cy="262.4" opacity=".42" r="23"/><path d="M626.9 255.7h-66.7c-3.1 0-5.6-2.5-5.6-5.6V249c0-3.1 2.5-5.6 5.6-5.6h66.7c3.1 0 5.6 2.5 5.6 5.6v1.1c0 3.1-2.5 5.6-5.6 5.6zm-22 25.9h-44.7c-3.1 0-5.6-2.5-5.6-5.6v-1.1c0-3.1 2.5-5.6 5.6-5.6h44.7c3.1 0 5.6 2.5 5.6 5.6v1.1c0 3.1-2.5 5.6-5.6 5.6z" opacity=".2"/></g></svg>