<svg viewBox="0 0 635 330" xmlns="http://www.w3.org/2000/svg"><g fill="#fff"><path d="M134.6 158.6H12.5c-5.5 0-10-4.5-10-10V75.1c0-5.5 4.5-10 10-10h122.1c5.5 0 10 4.5 10 10v73.5c0 5.5-4.5 10-10 10z" opacity=".2"/><path d="M50.7 129h45.6c1.6 0 2.9-1.3 2.9-2.8 0-.8-.3-1.5-.8-2L87 112.8c-1.1-1.1-2.9-1.1-4 0l-3.7 3.7-9.4-9.4c-1.1-1.1-2.9-1.1-4 0l-17.1 17.1c-1.1 1.1-1.1 2.9 0 4 .5.5 1.2.7 1.9.8z" opacity=".42"/><circle cx="87.8" cy="100.5" opacity=".42" r="5.7"/><path d="M297.2 158.6H175.1c-5.5 0-10-4.5-10-10V75.1c0-5.5 4.5-10 10-10h122.1c5.5 0 10 4.5 10 10v73.5c0 5.5-4.5 10-10 10z" opacity=".2"/><path d="M213.3 129H259c1.6 0 2.9-1.3 2.9-2.8 0-.8-.3-1.5-.8-2l-11.4-11.4c-1.1-1.1-2.9-1.1-4 0l-3.7 3.7-9.4-9.4c-1.1-1.1-2.9-1.1-4 0l-17.1 17.1c-1.1 1.1-1.1 2.9 0 4 .4.5 1.1.7 1.8.8z" opacity=".42"/><circle cx="250.4" cy="100.5" opacity=".42" r="5.7"/><path d="M459.9 158.6H337.8c-5.5 0-10-4.5-10-10V75.1c0-5.5 4.5-10 10-10h122.1c5.5 0 10 4.5 10 10v73.5c0 5.5-4.5 10-10 10z" opacity=".2"/><path d="M376 129h45.6c1.6 0 2.9-1.3 2.9-2.8 0-.8-.3-1.5-.8-2l-11.4-11.4c-1.1-1.1-2.9-1.1-4 0l-3.7 3.7-9.4-9.4c-1.1-1.1-2.9-1.1-4 0l-17.2 17c-1.1 1.1-1.1 2.9 0 4 .6.6 1.3.8 2 .9z" opacity=".42"/><circle cx="413" cy="100.5" opacity=".42" r="5.7"/><path d="M622.5 158.6H500.4c-5.5 0-10-4.5-10-10V75.1c0-5.5 4.5-10 10-10h122.1c5.5 0 10 4.5 10 10v73.5c0 5.5-4.5 10-10 10z" opacity=".2"/><path d="M538.6 129h45.6c1.6 0 2.9-1.3 2.9-2.8 0-.8-.3-1.5-.8-2l-11.4-11.4c-1.1-1.1-2.9-1.1-4 0l-3.7 3.7-9.4-9.4c-1.1-1.1-2.9-1.1-4 0l-17.1 17.1c-1.1 1.1-1.1 2.9 0 4 .5.5 1.2.7 1.9.8z" opacity=".42"/><circle cx="575.7" cy="100.5" opacity=".42" r="5.7"/><path d="M73.9 201.5H10.1c-3.1 0-5.6-2.5-5.6-5.6v-1.1c0-3.1 2.5-5.6 5.6-5.6h63.7c3.1 0 5.6 2.5 5.6 5.6v1.1c.1 3.1-2.4 5.6-5.5 5.6z" opacity=".42"/><path d="M121.1 233.4h-111c-3.1 0-5.6-2.5-5.6-5.6v-1.1c0-3.1 2.5-5.6 5.6-5.6h111c3.1 0 5.6 2.5 5.6 5.6v1.1c.1 3.1-2.5 5.6-5.6 5.6z" opacity=".2"/><path d="M236.9 201.5h-63.7c-3.1 0-5.6-2.5-5.6-5.6v-1.1c0-3.1 2.5-5.6 5.6-5.6h63.7c3.1 0 5.6 2.5 5.6 5.6v1.1c0 3.1-2.5 5.6-5.6 5.6z" opacity=".42"/><path d="M284.1 233.4h-111c-3.1 0-5.6-2.5-5.6-5.6v-1.1c0-3.1 2.5-5.6 5.6-5.6h111c3.1 0 5.6 2.5 5.6 5.6v1.1c.1 3.1-2.5 5.6-5.6 5.6z" opacity=".2"/><path d="M399.2 201.5h-63.7c-3.1 0-5.6-2.5-5.6-5.6v-1.1c0-3.1 2.5-5.6 5.6-5.6h63.7c3.1 0 5.6 2.5 5.6 5.6v1.1c0 3.1-2.5 5.6-5.6 5.6z" opacity=".42"/><path d="M446.4 233.4h-111c-3.1 0-5.6-2.5-5.6-5.6v-1.1c0-3.1 2.5-5.6 5.6-5.6h111c3.1 0 5.6 2.5 5.6 5.6v1.1c0 3.1-2.5 5.6-5.6 5.6z" opacity=".2"/><path d="M562.2 197.5h-63.7c-3.1 0-5.6-2.5-5.6-5.6v-1.1c0-3.1 2.5-5.6 5.6-5.6h63.7c3.1 0 5.6 2.5 5.6 5.6v1.1c0 3.1-2.5 5.6-5.6 5.6z" opacity=".42"/><path d="M609.4 229.4h-111c-3.1 0-5.6-2.5-5.6-5.6v-1.1c0-3.1 2.5-5.6 5.6-5.6h111c3.1 0 5.6 2.5 5.6 5.6v1.1c0 3.1-2.5 5.6-5.6 5.6z" opacity=".2"/><circle cx="11.8" cy="258.7" opacity=".42" r="6.2"/><circle cx="31.4" cy="258.7" opacity=".42" r="6.2"/><circle cx="173.8" cy="258.7" opacity=".42" r="6.2"/><circle cx="193.4" cy="258.7" opacity=".42" r="6.2"/><circle cx="335.8" cy="258.7" opacity=".42" r="6.2"/><circle cx="355.4" cy="258.7" opacity=".42" r="6.2"/><circle cx="498.8" cy="258.7" opacity=".42" r="6.2"/><circle cx="518.4" cy="258.7" opacity=".42" r="6.2"/></g></svg>