<svg xmlns="http://www.w3.org/2000/svg" xmlns:xlink="http://www.w3.org/1999/xlink" width="500" zoomAndPan="magnify" viewBox="0 0 375 374.999991" height="500" preserveAspectRatio="xMidYMid meet" version="1.0"><defs><clipPath id="3571df1336"><path d="M 50.707031 51 L 324.457031 51 L 324.457031 196 L 50.707031 196 Z M 50.707031 51 " clip-rule="nonzero"/></clipPath></defs><rect x="-37.5" width="450" fill="#ffffff" y="-37.499999" height="449.999989" fill-opacity="1"/><rect x="-37.5" width="450" fill="#ffffff" y="-37.499999" height="449.999989" fill-opacity="1"/><g clip-path="url(#3571df1336)"><path fill="#5e17eb" d="M 261.035156 73.03125 L 261.023438 73.023438 C 252.480469 67.519531 243.429688 63.039062 233.871094 59.582031 C 224.316406 56.121094 214.496094 53.773438 204.40625 52.53125 L 204.402344 52.53125 C 196.535156 51.554688 188.636719 51.257812 180.714844 51.636719 C 172.792969 52.019531 164.964844 53.074219 157.222656 54.804688 C 143.652344 57.851562 130.847656 62.867188 118.816406 69.847656 C 114.890625 72.121094 111.089844 74.585938 107.410156 77.238281 C 103.730469 79.890625 100.191406 82.714844 96.792969 85.71875 C 93.394531 88.722656 90.152344 91.886719 87.070312 95.214844 C 83.984375 98.539062 81.074219 102.007812 78.335938 105.625 C 75.597656 109.238281 73.042969 112.980469 70.675781 116.851562 C 68.308594 120.71875 66.140625 124.695312 64.167969 128.78125 C 62.195312 132.863281 60.429688 137.035156 58.875 141.296875 C 57.316406 145.554688 55.976562 149.882812 54.847656 154.277344 L 54.847656 154.285156 C 52.019531 165.40625 50.605469 176.707031 50.609375 188.179688 C 50.605469 188.667969 50.648438 189.148438 50.742188 189.625 C 50.832031 190.101562 50.96875 190.5625 51.152344 191.015625 C 51.335938 191.464844 51.5625 191.890625 51.832031 192.296875 C 52.097656 192.699219 52.402344 193.074219 52.746094 193.421875 C 53.089844 193.765625 53.460938 194.074219 53.863281 194.34375 C 54.265625 194.613281 54.691406 194.84375 55.140625 195.03125 C 55.589844 195.214844 56.050781 195.355469 56.527344 195.453125 C 57.003906 195.546875 57.484375 195.59375 57.972656 195.59375 C 58.457031 195.59375 58.9375 195.546875 59.414062 195.453125 C 59.890625 195.355469 60.351562 195.214844 60.800781 195.03125 C 61.25 194.84375 61.675781 194.613281 62.078125 194.34375 C 62.480469 194.074219 62.851562 193.765625 63.195312 193.421875 C 63.539062 193.074219 63.84375 192.699219 64.109375 192.296875 C 64.378906 191.890625 64.605469 191.464844 64.789062 191.015625 C 64.972656 190.5625 65.109375 190.101562 65.199219 189.625 C 65.292969 189.148438 65.335938 188.667969 65.332031 188.179688 C 65.328125 177.9375 66.589844 167.851562 69.113281 157.925781 L 69.117188 157.921875 C 69.808594 155.214844 70.59375 152.539062 71.472656 149.886719 C 72.347656 147.234375 73.316406 144.617188 74.371094 142.035156 C 75.429688 139.449219 76.574219 136.902344 77.804688 134.398438 C 79.035156 131.890625 80.351562 129.429688 81.75 127.015625 C 83.152344 124.597656 84.632812 122.234375 86.195312 119.917969 C 87.757812 117.605469 89.398438 115.347656 91.117188 113.144531 C 92.832031 110.945312 94.625 108.804688 96.488281 106.726562 C 98.355469 104.648438 100.289062 102.636719 102.289062 100.6875 C 104.292969 98.742188 106.359375 96.867188 108.492188 95.0625 C 110.621094 93.261719 112.8125 91.53125 115.0625 89.878906 C 117.3125 88.222656 119.617188 86.648438 121.972656 85.152344 C 124.332031 83.65625 126.738281 82.246094 129.191406 80.914062 C 131.648438 79.582031 134.144531 78.339844 136.6875 77.179688 C 139.226562 76.019531 141.804688 74.949219 144.417969 73.96875 C 147.03125 72.984375 149.675781 72.09375 152.351562 71.292969 C 155.027344 70.492188 157.726562 69.785156 160.449219 69.167969 C 174.375 66.058594 188.417969 65.382812 202.578125 67.144531 C 211.574219 68.25 220.335938 70.347656 228.859375 73.429688 C 237.378906 76.511719 245.453125 80.507812 253.074219 85.414062 L 253.078125 85.417969 C 255.226562 86.789062 257.328125 88.222656 259.386719 89.722656 C 261.445312 91.226562 263.453125 92.789062 265.410156 94.417969 C 267.371094 96.046875 269.277344 97.734375 271.128906 99.480469 C 272.980469 101.226562 274.777344 103.03125 276.519531 104.890625 C 278.257812 106.753906 279.9375 108.664062 281.558594 110.632812 C 283.175781 112.597656 284.734375 114.613281 286.226562 116.675781 C 287.71875 118.738281 289.144531 120.847656 290.503906 123 C 291.867188 125.15625 293.15625 127.347656 294.378906 129.582031 C 295.601562 131.816406 296.753906 134.089844 297.832031 136.394531 C 298.914062 138.703125 299.917969 141.039062 300.851562 143.410156 C 301.785156 145.78125 302.644531 148.175781 303.425781 150.601562 C 304.207031 153.023438 304.914062 155.472656 305.542969 157.9375 C 306.171875 160.40625 306.71875 162.894531 307.191406 165.394531 C 307.664062 167.898438 308.058594 170.414062 308.371094 172.941406 C 308.6875 175.46875 308.921875 178.003906 309.078125 180.546875 C 309.230469 183.089844 309.308594 185.632812 309.300781 188.179688 C 309.296875 188.667969 309.34375 189.148438 309.433594 189.625 C 309.527344 190.101562 309.664062 190.5625 309.847656 191.015625 C 310.03125 191.464844 310.257812 191.890625 310.523438 192.296875 C 310.792969 192.699219 311.097656 193.074219 311.441406 193.421875 C 311.78125 193.765625 312.15625 194.074219 312.558594 194.34375 C 312.960938 194.613281 313.386719 194.84375 313.835938 195.03125 C 314.28125 195.214844 314.746094 195.355469 315.222656 195.453125 C 315.699219 195.546875 316.179688 195.59375 316.664062 195.59375 C 317.148438 195.59375 317.628906 195.546875 318.105469 195.453125 C 318.582031 195.355469 319.046875 195.214844 319.492188 195.03125 C 319.941406 194.84375 320.367188 194.613281 320.769531 194.34375 C 321.171875 194.074219 321.546875 193.765625 321.886719 193.421875 C 322.230469 193.074219 322.535156 192.699219 322.804688 192.296875 C 323.070312 191.890625 323.296875 191.464844 323.480469 191.015625 C 323.664062 190.5625 323.800781 190.101562 323.894531 189.625 C 323.984375 189.148438 324.03125 188.667969 324.027344 188.179688 C 324.03125 185.328125 323.949219 182.476562 323.773438 179.625 C 323.601562 176.777344 323.339844 173.9375 322.988281 171.105469 C 322.632812 168.273438 322.195312 165.453125 321.664062 162.652344 C 321.136719 159.847656 320.519531 157.0625 319.816406 154.296875 C 319.109375 151.53125 318.320312 148.789062 317.445312 146.074219 C 316.566406 143.355469 315.605469 140.671875 314.5625 138.015625 C 313.515625 135.359375 312.390625 132.738281 311.179688 130.15625 C 309.96875 127.570312 308.679688 125.023438 307.3125 122.519531 C 305.941406 120.019531 304.496094 117.558594 302.96875 115.148438 C 301.445312 112.734375 299.847656 110.371094 298.175781 108.058594 C 296.503906 105.746094 294.757812 103.488281 292.945312 101.285156 C 291.128906 99.082031 289.246094 96.9375 287.296875 94.855469 C 285.351562 92.769531 283.335938 90.75 281.261719 88.789062 C 279.183594 86.832031 277.050781 84.941406 274.855469 83.117188 C 272.660156 81.292969 270.410156 79.539062 268.101562 77.859375 C 265.796875 76.175781 263.441406 74.566406 261.035156 73.03125 Z M 261.035156 73.03125 " fill-opacity="1" fill-rule="nonzero"/></g><path fill="#5e17eb" d="M 263.46875 116.808594 C 255.28125 108.0625 245.871094 100.9375 235.230469 95.433594 L 235.222656 95.429688 C 227.8125 91.613281 220.0625 88.722656 211.964844 86.757812 C 203.867188 84.792969 195.648438 83.808594 187.316406 83.804688 L 187.152344 83.804688 C 180.441406 83.808594 173.792969 84.453125 167.207031 85.742188 C 160.621094 87.035156 154.222656 88.945312 148.003906 91.472656 L 147.996094 91.480469 C 145.605469 92.449219 143.257812 93.507812 140.949219 94.652344 C 138.640625 95.796875 136.378906 97.027344 134.160156 98.339844 C 131.941406 99.652344 129.773438 101.042969 127.660156 102.515625 C 125.546875 103.988281 123.488281 105.539062 121.488281 107.164062 C 119.488281 108.789062 117.550781 110.488281 115.675781 112.257812 C 113.800781 114.023438 111.996094 115.859375 110.257812 117.761719 C 108.519531 119.667969 106.851562 121.628906 105.261719 123.65625 C 103.667969 125.683594 102.152344 127.765625 100.714844 129.902344 C 99.273438 132.042969 97.917969 134.230469 96.640625 136.46875 C 95.363281 138.707031 94.171875 140.992188 93.066406 143.320312 C 91.957031 145.648438 90.9375 148.011719 90.007812 150.414062 C 89.074219 152.816406 88.234375 155.25 87.480469 157.714844 C 86.730469 160.183594 86.070312 162.671875 85.503906 165.183594 C 84.9375 167.699219 84.464844 170.230469 84.082031 172.78125 C 83.703125 175.328125 83.417969 177.890625 83.230469 180.460938 C 83.039062 183.03125 82.945312 185.601562 82.945312 188.179688 C 82.945312 188.933594 82.910156 189.683594 82.84375 190.433594 C 82.773438 191.183594 82.671875 191.929688 82.535156 192.667969 C 82.398438 193.410156 82.230469 194.140625 82.03125 194.867188 C 81.828125 195.59375 81.59375 196.304688 81.328125 197.011719 C 81.058594 197.714844 80.761719 198.40625 80.433594 199.082031 C 80.105469 199.757812 79.746094 200.417969 79.355469 201.0625 C 78.96875 201.707031 78.550781 202.335938 78.105469 202.941406 C 77.660156 203.546875 77.1875 204.132812 76.691406 204.699219 C 76.191406 205.261719 75.671875 205.800781 75.125 206.320312 C 74.578125 206.835938 74.007812 207.328125 73.414062 207.792969 C 72.824219 208.257812 72.214844 208.695312 71.582031 209.105469 C 70.949219 209.519531 70.304688 209.898438 69.636719 210.25 C 68.972656 210.601562 68.292969 210.921875 67.597656 211.214844 C 66.902344 211.503906 66.195312 211.761719 65.480469 211.988281 C 64.761719 212.214844 64.035156 212.410156 63.300781 212.570312 C 62.5625 212.730469 61.824219 212.859375 61.078125 212.953125 C 60.617188 213.007812 60.164062 213.109375 59.722656 213.25 C 59.28125 213.394531 58.855469 213.574219 58.449219 213.796875 C 58.042969 214.019531 57.660156 214.28125 57.300781 214.574219 C 56.941406 214.871094 56.613281 215.195312 56.316406 215.554688 C 56.019531 215.910156 55.761719 216.292969 55.535156 216.699219 C 55.3125 217.105469 55.125 217.527344 54.984375 217.96875 C 54.839844 218.410156 54.738281 218.863281 54.675781 219.324219 C 54.617188 219.785156 54.601562 220.246094 54.632812 220.707031 C 54.660156 221.171875 54.730469 221.628906 54.847656 222.078125 C 54.960938 222.527344 55.117188 222.964844 55.3125 223.382812 C 55.511719 223.804688 55.746094 224.203125 56.015625 224.578125 C 56.289062 224.953125 56.59375 225.300781 56.933594 225.621094 C 57.269531 225.9375 57.636719 226.222656 58.027344 226.472656 C 58.417969 226.71875 58.832031 226.929688 59.261719 227.101562 C 59.695312 227.273438 60.136719 227.402344 60.59375 227.492188 C 61.050781 227.578125 61.507812 227.621094 61.972656 227.621094 C 62.28125 227.625 62.585938 227.605469 62.886719 227.566406 C 64.074219 227.417969 65.253906 227.214844 66.421875 226.960938 C 67.59375 226.703125 68.75 226.394531 69.890625 226.035156 C 71.03125 225.675781 72.152344 225.265625 73.257812 224.804688 C 74.363281 224.34375 75.445312 223.832031 76.503906 223.273438 C 77.5625 222.714844 78.589844 222.109375 79.59375 221.457031 C 80.597656 220.804688 81.570312 220.105469 82.511719 219.367188 C 83.453125 218.625 84.355469 217.84375 85.226562 217.023438 C 86.097656 216.199219 86.929688 215.339844 87.71875 214.445312 C 88.511719 213.546875 89.261719 212.617188 89.96875 211.652344 C 90.679688 210.6875 91.34375 209.691406 91.960938 208.667969 C 92.578125 207.640625 93.148438 206.589844 93.671875 205.515625 C 94.195312 204.4375 94.667969 203.339844 95.09375 202.222656 C 95.515625 201.101562 95.890625 199.964844 96.210938 198.8125 C 96.53125 197.660156 96.800781 196.496094 97.015625 195.316406 C 97.234375 194.140625 97.394531 192.957031 97.503906 191.765625 C 97.613281 190.570312 97.667969 189.378906 97.671875 188.179688 C 97.671875 185.96875 97.753906 183.757812 97.921875 181.550781 C 98.085938 179.34375 98.332031 177.144531 98.660156 174.953125 C 98.988281 172.765625 99.394531 170.589844 99.882812 168.433594 C 100.371094 166.273438 100.9375 164.136719 101.585938 162.019531 C 102.230469 159.902344 102.957031 157.8125 103.757812 155.746094 C 104.558594 153.683594 105.433594 151.652344 106.386719 149.65625 C 107.335938 147.65625 108.363281 145.695312 109.457031 143.773438 C 110.554688 141.851562 111.722656 139.96875 112.957031 138.132812 C 114.191406 136.296875 115.492188 134.507812 116.859375 132.769531 C 118.230469 131.027344 119.660156 129.339844 121.152344 127.707031 C 122.644531 126.070312 124.195312 124.496094 125.804688 122.976562 C 127.414062 121.457031 129.078125 119.996094 130.792969 118.601562 C 132.511719 117.203125 134.277344 115.871094 136.09375 114.605469 C 137.910156 113.339844 139.769531 112.144531 141.675781 111.015625 C 143.578125 109.886719 145.523438 108.828125 147.503906 107.84375 C 149.484375 106.859375 151.503906 105.949219 153.550781 105.113281 L 153.558594 105.113281 C 158.894531 102.941406 164.390625 101.300781 170.046875 100.195312 C 175.703125 99.085938 181.414062 98.535156 187.175781 98.535156 L 187.246094 98.527344 L 187.320312 98.535156 C 194.476562 98.511719 201.535156 99.34375 208.492188 101.03125 C 215.449219 102.71875 222.105469 105.210938 228.457031 108.511719 L 228.464844 108.515625 C 230.28125 109.453125 232.0625 110.449219 233.8125 111.511719 C 235.558594 112.570312 237.269531 113.6875 238.941406 114.867188 C 240.613281 116.042969 242.242188 117.273438 243.828125 118.5625 C 245.417969 119.851562 246.957031 121.191406 248.453125 122.585938 C 249.949219 123.980469 251.394531 125.425781 252.792969 126.917969 C 254.191406 128.410156 255.535156 129.949219 256.824219 131.535156 C 258.117188 133.117188 259.351562 134.746094 260.53125 136.414062 C 261.714844 138.085938 262.835938 139.792969 263.898438 141.539062 C 264.960938 143.285156 265.964844 145.066406 266.90625 146.878906 C 267.847656 148.695312 268.722656 150.539062 269.539062 152.414062 C 270.355469 154.289062 271.105469 156.191406 271.789062 158.117188 C 272.472656 160.042969 273.09375 161.992188 273.644531 163.960938 C 274.195312 165.929688 274.679688 167.914062 275.09375 169.914062 C 275.511719 171.917969 275.859375 173.929688 276.136719 175.957031 C 276.414062 177.980469 276.621094 180.015625 276.761719 182.054688 C 276.898438 184.09375 276.96875 186.136719 276.96875 188.179688 C 277.011719 197.34375 276.484375 206.472656 275.386719 215.566406 C 274.289062 224.664062 272.628906 233.65625 270.40625 242.546875 C 268.183594 251.433594 265.414062 260.148438 262.097656 268.691406 C 258.785156 277.230469 254.949219 285.535156 250.597656 293.59375 C 250.359375 294.019531 250.167969 294.460938 250.019531 294.925781 C 249.871094 295.386719 249.769531 295.859375 249.714844 296.339844 C 249.660156 296.824219 249.652344 297.304688 249.691406 297.789062 C 249.730469 298.273438 249.820312 298.75 249.953125 299.214844 C 250.085938 299.683594 250.265625 300.128906 250.488281 300.5625 C 250.710938 300.992188 250.976562 301.398438 251.277344 301.777344 C 251.582031 302.15625 251.917969 302.5 252.289062 302.8125 C 252.664062 303.125 253.0625 303.398438 253.488281 303.632812 C 253.910156 303.867188 254.355469 304.054688 254.820312 304.203125 C 255.28125 304.347656 255.753906 304.445312 256.238281 304.5 C 256.71875 304.550781 257.203125 304.554688 257.6875 304.511719 C 258.171875 304.46875 258.644531 304.378906 259.109375 304.242188 C 259.574219 304.105469 260.023438 303.921875 260.453125 303.695312 C 260.882812 303.46875 261.285156 303.203125 261.664062 302.898438 C 262.039062 302.59375 262.382812 302.253906 262.695312 301.878906 C 263.003906 301.507812 263.273438 301.105469 263.503906 300.679688 C 268.15625 292.078125 272.25 283.21875 275.792969 274.101562 C 279.332031 264.988281 282.289062 255.6875 284.667969 246.203125 C 287.042969 236.714844 288.820312 227.117188 289.996094 217.410156 C 291.167969 207.703125 291.734375 197.960938 291.691406 188.179688 C 291.691406 184.902344 291.542969 181.632812 291.238281 178.371094 C 290.929688 175.105469 290.472656 171.863281 289.859375 168.644531 C 289.25 165.425781 288.488281 162.242188 287.574219 159.09375 C 286.660156 155.945312 285.601562 152.847656 284.398438 149.796875 C 283.191406 146.75 281.847656 143.765625 280.359375 140.84375 C 278.871094 137.925781 277.25 135.082031 275.496094 132.3125 C 273.738281 129.546875 271.859375 126.867188 269.847656 124.277344 C 267.839844 121.6875 265.714844 119.195312 263.46875 116.808594 Z M 263.46875 116.808594 " fill-opacity="1" fill-rule="nonzero"/><path fill="#5e17eb" d="M 259.363281 188.179688 C 259.363281 188.121094 259.347656 188.066406 259.347656 188.007812 C 259.34375 186.125 259.269531 184.246094 259.121094 182.371094 C 258.972656 180.492188 258.75 178.625 258.457031 176.769531 C 258.160156 174.910156 257.792969 173.066406 257.355469 171.234375 C 256.914062 169.40625 256.402344 167.597656 255.820312 165.808594 C 255.238281 164.019531 254.585938 162.253906 253.867188 160.515625 C 253.144531 158.777344 252.355469 157.070312 251.503906 155.394531 C 250.648438 153.71875 249.726562 152.078125 248.746094 150.472656 C 247.761719 148.867188 246.714844 147.304688 245.609375 145.78125 C 244.503906 144.261719 243.339844 142.785156 242.117188 141.355469 C 240.894531 139.921875 239.617188 138.542969 238.285156 137.210938 C 236.957031 135.882812 235.574219 134.605469 234.144531 133.382812 C 232.710938 132.160156 231.234375 130.996094 229.714844 129.890625 C 228.191406 128.785156 226.625 127.742188 225.023438 126.757812 C 223.417969 125.773438 221.777344 124.855469 220.101562 124.003906 C 218.421875 123.148438 216.714844 122.359375 214.976562 121.640625 C 213.238281 120.921875 211.476562 120.269531 209.683594 119.6875 C 206.617188 118.683594 203.496094 117.890625 200.320312 117.308594 C 197.148438 116.726562 193.945312 116.359375 190.722656 116.207031 C 187.5 116.054688 184.277344 116.117188 181.0625 116.398438 C 177.847656 116.679688 174.664062 117.171875 171.515625 117.878906 C 168.367188 118.589844 165.28125 119.503906 162.253906 120.628906 C 159.230469 121.753906 156.292969 123.074219 153.445312 124.59375 C 150.597656 126.113281 147.863281 127.816406 145.242188 129.703125 C 142.625 131.589844 140.144531 133.640625 137.800781 135.863281 C 136.019531 137.535156 134.328125 139.292969 132.730469 141.140625 C 131.128906 142.988281 129.625 144.910156 128.222656 146.910156 C 126.820312 148.910156 125.523438 150.976562 124.332031 153.113281 C 123.140625 155.246094 122.0625 157.433594 121.097656 159.679688 C 120.132812 161.921875 119.28125 164.210938 118.550781 166.542969 C 117.820312 168.875 117.210938 171.238281 116.722656 173.632812 C 116.234375 176.023438 115.871094 178.4375 115.628906 180.871094 C 115.386719 183.300781 115.273438 185.738281 115.28125 188.183594 C 115.296875 192.078125 114.914062 195.9375 114.136719 199.757812 C 113.355469 203.578125 112.195312 207.277344 110.652344 210.859375 C 109.113281 214.4375 107.222656 217.824219 104.984375 221.015625 C 102.746094 224.207031 100.203125 227.136719 97.363281 229.804688 C 93.839844 233.140625 89.957031 235.984375 85.710938 238.335938 C 81.46875 240.6875 76.996094 242.472656 72.300781 243.6875 C 71.832031 243.808594 71.378906 243.972656 70.945312 244.179688 C 70.507812 244.390625 70.097656 244.640625 69.710938 244.929688 C 69.324219 245.222656 68.96875 245.546875 68.648438 245.90625 C 68.324219 246.265625 68.039062 246.65625 67.792969 247.070312 C 67.546875 247.488281 67.34375 247.925781 67.183594 248.378906 C 67.023438 248.835938 66.910156 249.304688 66.84375 249.78125 C 66.773438 250.261719 66.753906 250.742188 66.78125 251.222656 C 66.808594 251.707031 66.882812 252.183594 67.003906 252.652344 C 67.121094 253.117188 67.289062 253.570312 67.496094 254.007812 C 67.707031 254.441406 67.957031 254.851562 68.246094 255.238281 C 68.535156 255.625 68.863281 255.980469 69.222656 256.304688 C 69.582031 256.625 69.96875 256.910156 70.386719 257.15625 C 70.804688 257.402344 71.238281 257.605469 71.695312 257.765625 C 72.152344 257.925781 72.617188 258.039062 73.097656 258.105469 C 73.574219 258.175781 74.058594 258.195312 74.539062 258.167969 C 75.023438 258.140625 75.496094 258.066406 75.964844 257.949219 C 81.875 256.417969 87.496094 254.179688 92.835938 251.222656 C 98.171875 248.265625 103.058594 244.691406 107.488281 240.496094 C 109.269531 238.824219 110.960938 237.066406 112.5625 235.21875 C 114.160156 233.375 115.664062 231.449219 117.066406 229.449219 C 118.46875 227.449219 119.765625 225.382812 120.957031 223.25 C 122.148438 221.117188 123.226562 218.925781 124.191406 216.683594 C 125.160156 214.4375 126.007812 212.148438 126.738281 209.820312 C 127.46875 207.488281 128.078125 205.125 128.566406 202.730469 C 129.058594 200.335938 129.421875 197.925781 129.660156 195.492188 C 129.902344 193.0625 130.019531 190.625 130.007812 188.179688 C 129.992188 184.28125 130.375 180.421875 131.15625 176.601562 C 131.933594 172.785156 133.09375 169.082031 134.636719 165.503906 C 136.175781 161.921875 138.066406 158.535156 140.304688 155.34375 C 142.542969 152.152344 145.085938 149.222656 147.925781 146.554688 C 151.4375 143.234375 155.300781 140.398438 159.527344 138.054688 C 163.75 135.707031 168.199219 133.925781 172.875 132.703125 C 178.1875 131.339844 183.582031 130.742188 189.066406 130.910156 C 194.546875 131.074219 199.898438 132 205.117188 133.6875 C 206.546875 134.152344 207.953125 134.671875 209.335938 135.246094 C 210.722656 135.820312 212.082031 136.445312 213.421875 137.128906 C 214.757812 137.808594 216.0625 138.542969 217.34375 139.324219 C 218.621094 140.109375 219.867188 140.945312 221.082031 141.824219 C 222.292969 142.707031 223.46875 143.636719 224.609375 144.613281 C 225.75 145.585938 226.851562 146.605469 227.910156 147.667969 C 228.96875 148.726562 229.988281 149.828125 230.960938 150.972656 C 231.933594 152.113281 232.859375 153.289062 233.742188 154.503906 C 234.621094 155.71875 235.453125 156.964844 236.234375 158.246094 C 237.015625 159.527344 237.75 160.835938 238.425781 162.171875 C 239.105469 163.507812 239.734375 164.871094 240.304688 166.257812 C 240.878906 167.644531 241.394531 169.050781 241.855469 170.480469 C 242.316406 171.90625 242.722656 173.351562 243.070312 174.808594 C 243.417969 176.269531 243.707031 177.738281 243.941406 179.21875 C 244.171875 180.703125 244.34375 182.191406 244.460938 183.6875 C 244.574219 185.183594 244.632812 186.679688 244.628906 188.179688 L 244.636719 188.261719 C 244.65625 195.425781 244.257812 202.5625 243.445312 209.679688 C 242.632812 216.796875 241.410156 223.839844 239.777344 230.816406 C 238.144531 237.789062 236.117188 244.644531 233.6875 251.382812 C 231.257812 258.121094 228.445312 264.695312 225.25 271.105469 L 225.246094 271.117188 C 217.9375 285.824219 208.84375 299.335938 197.972656 311.644531 C 197.652344 312.007812 197.367188 312.398438 197.125 312.816406 C 196.882812 313.234375 196.679688 313.671875 196.523438 314.128906 C 196.367188 314.585938 196.253906 315.054688 196.191406 315.535156 C 196.125 316.011719 196.109375 316.496094 196.136719 316.976562 C 196.167969 317.460938 196.242188 317.9375 196.367188 318.402344 C 196.492188 318.871094 196.660156 319.324219 196.871094 319.757812 C 197.082031 320.191406 197.335938 320.601562 197.628906 320.984375 C 197.921875 321.371094 198.25 321.722656 198.613281 322.042969 C 198.976562 322.363281 199.367188 322.644531 199.785156 322.890625 C 200.203125 323.132812 200.640625 323.332031 201.097656 323.488281 C 201.554688 323.644531 202.023438 323.757812 202.503906 323.820312 C 202.984375 323.886719 203.464844 323.902344 203.945312 323.871094 C 204.429688 323.84375 204.90625 323.765625 205.371094 323.640625 C 205.839844 323.519531 206.292969 323.351562 206.726562 323.136719 C 207.160156 322.925781 207.570312 322.671875 207.953125 322.378906 C 208.339844 322.085938 208.691406 321.753906 209.011719 321.394531 C 220.738281 308.113281 230.546875 293.539062 238.433594 277.675781 L 238.441406 277.660156 C 241.890625 270.738281 244.925781 263.636719 247.550781 256.359375 C 250.171875 249.082031 252.367188 241.675781 254.125 234.140625 C 255.886719 226.609375 257.207031 219 258.082031 211.3125 C 258.957031 203.628906 259.386719 195.917969 259.363281 188.179688 Z M 259.363281 188.179688 " fill-opacity="1" fill-rule="nonzero"/><path fill="#5e17eb" d="M 193.730469 288.699219 C 202.058594 277.472656 208.882812 265.398438 214.207031 252.476562 C 214.394531 252.027344 214.53125 251.566406 214.625 251.09375 C 214.71875 250.617188 214.765625 250.140625 214.765625 249.65625 C 214.765625 249.171875 214.71875 248.691406 214.625 248.21875 C 214.527344 247.746094 214.386719 247.285156 214.203125 246.835938 C 214.015625 246.390625 213.789062 245.964844 213.519531 245.5625 C 213.25 245.164062 212.945312 244.789062 212.601562 244.449219 C 212.261719 244.109375 211.886719 243.804688 211.484375 243.535156 C 211.082031 243.265625 210.65625 243.039062 210.210938 242.855469 C 209.761719 242.671875 209.300781 242.53125 208.828125 242.4375 C 208.351562 242.347656 207.875 242.300781 207.390625 242.300781 C 206.90625 242.300781 206.425781 242.347656 205.953125 242.445312 C 205.480469 242.539062 205.019531 242.679688 204.570312 242.867188 C 204.125 243.054688 203.703125 243.28125 203.300781 243.550781 C 202.898438 243.820312 202.527344 244.125 202.1875 244.46875 C 201.84375 244.8125 201.539062 245.183594 201.273438 245.585938 C 201.003906 245.992188 200.777344 246.414062 200.59375 246.863281 C 195.597656 258.984375 189.160156 270.28125 181.28125 280.761719 C 173.4375 291.1875 164.421875 300.476562 154.234375 308.625 C 153.859375 308.929688 153.515625 309.265625 153.203125 309.632812 C 152.890625 310.003906 152.621094 310.402344 152.386719 310.824219 C 152.152344 311.246094 151.964844 311.691406 151.820312 312.152344 C 151.671875 312.613281 151.574219 313.082031 151.519531 313.5625 C 151.46875 314.042969 151.460938 314.523438 151.503906 315.003906 C 151.542969 315.488281 151.632812 315.960938 151.765625 316.425781 C 151.902344 316.886719 152.078125 317.335938 152.300781 317.765625 C 152.523438 318.191406 152.789062 318.597656 153.089844 318.972656 C 153.390625 319.351562 153.726562 319.695312 154.097656 320.007812 C 154.46875 320.316406 154.863281 320.589844 155.289062 320.824219 C 155.710938 321.054688 156.152344 321.246094 156.613281 321.390625 C 157.074219 321.535156 157.546875 321.636719 158.027344 321.691406 C 158.507812 321.742188 158.988281 321.75 159.46875 321.707031 C 159.949219 321.664062 160.421875 321.578125 160.886719 321.441406 C 161.351562 321.308594 161.796875 321.128906 162.226562 320.90625 C 162.65625 320.683594 163.058594 320.421875 163.4375 320.121094 C 174.296875 311.433594 183.941406 301.5625 192.375 290.503906 C 192.421875 290.460938 192.457031 290.402344 192.503906 290.355469 C 192.605469 290.246094 192.691406 290.128906 192.792969 290.011719 C 193.082031 289.679688 193.339844 289.320312 193.5625 288.9375 C 193.609375 288.851562 193.683594 288.785156 193.730469 288.699219 Z M 193.730469 288.699219 " fill-opacity="1" fill-rule="nonzero"/><path fill="#5e17eb" d="M 156.070312 283.1875 C 164.46875 274.519531 171.597656 264.90625 177.457031 254.355469 C 177.691406 253.933594 177.878906 253.492188 178.023438 253.03125 C 178.167969 252.574219 178.265625 252.105469 178.320312 251.625 C 178.371094 251.148438 178.378906 250.667969 178.335938 250.1875 C 178.296875 249.707031 178.207031 249.234375 178.074219 248.773438 C 177.941406 248.308594 177.761719 247.863281 177.542969 247.4375 C 177.320312 247.007812 177.058594 246.605469 176.757812 246.230469 C 176.460938 245.851562 176.125 245.507812 175.757812 245.199219 C 175.390625 244.886719 174.996094 244.613281 174.574219 244.378906 C 174.152344 244.148438 173.714844 243.957031 173.253906 243.808594 C 172.796875 243.660156 172.328125 243.558594 171.851562 243.503906 C 171.371094 243.449219 170.890625 243.441406 170.410156 243.476562 C 169.933594 243.515625 169.460938 243.601562 168.996094 243.734375 C 168.53125 243.863281 168.085938 244.039062 167.65625 244.257812 C 167.226562 244.476562 166.824219 244.734375 166.445312 245.03125 C 166.066406 245.332031 165.722656 245.664062 165.410156 246.027344 C 165.09375 246.394531 164.820312 246.789062 164.582031 247.207031 C 159.355469 256.625 152.992188 265.203125 145.492188 272.941406 L 145.480469 272.957031 C 137.566406 281.132812 128.679688 288.066406 118.828125 293.761719 C 118.410156 294.003906 118.019531 294.285156 117.65625 294.601562 C 117.292969 294.921875 116.960938 295.273438 116.667969 295.65625 C 116.375 296.039062 116.121094 296.449219 115.90625 296.882812 C 115.691406 297.316406 115.523438 297.765625 115.398438 298.234375 C 115.273438 298.699219 115.195312 299.175781 115.160156 299.660156 C 115.128906 300.140625 115.144531 300.621094 115.210938 301.101562 C 115.273438 301.582031 115.382812 302.050781 115.535156 302.507812 C 115.691406 302.964844 115.890625 303.402344 116.132812 303.820312 C 116.375 304.242188 116.65625 304.632812 116.972656 304.996094 C 117.292969 305.359375 117.644531 305.6875 118.027344 305.984375 C 118.410156 306.277344 118.820312 306.53125 119.253906 306.746094 C 119.6875 306.957031 120.136719 307.128906 120.605469 307.253906 C 121.070312 307.378906 121.546875 307.457031 122.027344 307.488281 C 122.511719 307.519531 122.992188 307.503906 123.472656 307.441406 C 123.949219 307.378906 124.417969 307.269531 124.878906 307.113281 C 125.335938 306.957031 125.773438 306.757812 126.191406 306.519531 C 137.226562 300.136719 147.175781 292.371094 156.042969 283.214844 Z M 156.070312 283.1875 " fill-opacity="1" fill-rule="nonzero"/><path fill="#5e17eb" d="M 128.132812 255.570312 C 127.808594 255.207031 127.453125 254.882812 127.066406 254.59375 C 126.683594 254.300781 126.269531 254.050781 125.835938 253.84375 C 125.398438 253.632812 124.945312 253.46875 124.480469 253.347656 C 124.011719 253.226562 123.535156 253.15625 123.050781 253.128906 C 122.570312 253.101562 122.089844 253.121094 121.609375 253.191406 C 121.132812 253.257812 120.664062 253.371094 120.207031 253.53125 C 119.75 253.691406 119.316406 253.894531 118.898438 254.140625 C 118.484375 254.386719 118.09375 254.671875 117.734375 254.996094 C 109.976562 261.949219 101.265625 267.382812 91.609375 271.296875 C 91.160156 271.476562 90.730469 271.699219 90.324219 271.964844 C 89.917969 272.230469 89.542969 272.53125 89.195312 272.871094 C 88.851562 273.210938 88.539062 273.578125 88.269531 273.980469 C 87.996094 274.378906 87.761719 274.804688 87.574219 275.25 C 87.382812 275.695312 87.238281 276.15625 87.140625 276.628906 C 87.042969 277.105469 86.988281 277.582031 86.984375 278.066406 C 86.980469 278.550781 87.023438 279.03125 87.117188 279.507812 C 87.207031 279.984375 87.34375 280.449219 87.523438 280.898438 C 87.707031 281.347656 87.929688 281.773438 88.199219 282.175781 C 88.464844 282.582031 88.765625 282.957031 89.109375 283.300781 C 89.449219 283.648438 89.820312 283.957031 90.21875 284.226562 C 90.621094 284.5 91.046875 284.730469 91.492188 284.917969 C 91.9375 285.105469 92.398438 285.246094 92.875 285.34375 C 93.347656 285.441406 93.828125 285.492188 94.3125 285.492188 C 94.796875 285.496094 95.277344 285.449219 95.753906 285.359375 C 96.230469 285.265625 96.691406 285.128906 97.140625 284.941406 C 108.382812 280.390625 118.523438 274.0625 127.554688 265.964844 C 127.917969 265.644531 128.242188 265.289062 128.53125 264.902344 C 128.824219 264.515625 129.070312 264.105469 129.28125 263.667969 C 129.492188 263.230469 129.65625 262.78125 129.777344 262.3125 C 129.894531 261.84375 129.96875 261.367188 129.996094 260.886719 C 130.023438 260.402344 130.003906 259.921875 129.933594 259.445312 C 129.867188 258.964844 129.753906 258.496094 129.59375 258.042969 C 129.433594 257.585938 129.230469 257.148438 128.984375 256.734375 C 128.738281 256.316406 128.453125 255.929688 128.132812 255.570312 Z M 128.132812 255.570312 " fill-opacity="1" fill-rule="nonzero"/><path fill="#5e17eb" d="M 226.714844 184.371094 C 226.59375 183.164062 226.414062 181.960938 226.183594 180.769531 C 225.949219 179.574219 225.664062 178.394531 225.324219 177.226562 C 224.980469 176.058594 224.589844 174.910156 224.140625 173.78125 C 223.695312 172.648438 223.195312 171.542969 222.648438 170.457031 C 222.097656 169.371094 221.5 168.316406 220.855469 167.285156 C 220.207031 166.253906 219.515625 165.257812 218.777344 164.292969 C 218.039062 163.324219 217.257812 162.394531 216.433594 161.503906 C 215.609375 160.609375 214.746094 159.753906 213.84375 158.941406 C 212.941406 158.125 212 157.355469 211.027344 156.625 C 210.054688 155.898438 209.046875 155.21875 208.011719 154.582031 C 206.976562 153.945312 205.910156 153.359375 204.820312 152.824219 C 203.730469 152.285156 202.617188 151.800781 201.480469 151.367188 C 200.34375 150.929688 199.191406 150.550781 198.023438 150.222656 C 196.851562 149.894531 195.667969 149.621094 194.472656 149.402344 C 193.277344 149.179688 192.074219 149.019531 190.863281 148.910156 C 189.652344 148.800781 188.4375 148.75 187.222656 148.753906 C 185.523438 148.757812 183.828125 148.867188 182.144531 149.085938 L 182.136719 149.085938 C 180.953125 149.238281 179.78125 149.445312 178.617188 149.707031 C 177.453125 149.96875 176.300781 150.277344 175.164062 150.644531 C 174.027344 151.007812 172.910156 151.421875 171.8125 151.886719 C 170.710938 152.347656 169.636719 152.863281 168.582031 153.421875 C 167.53125 153.984375 166.503906 154.59375 165.507812 155.246094 C 164.507812 155.898438 163.539062 156.597656 162.605469 157.335938 C 161.667969 158.078125 160.769531 158.859375 159.902344 159.679688 C 159.039062 160.503906 158.210938 161.359375 157.425781 162.257812 C 156.636719 163.152344 155.890625 164.082031 155.1875 165.046875 C 154.480469 166.007812 153.820312 167.003906 153.207031 168.023438 C 152.59375 169.046875 152.023438 170.097656 151.503906 171.167969 C 150.984375 172.242188 150.511719 173.339844 150.089844 174.453125 C 149.667969 175.570312 149.296875 176.703125 148.976562 177.851562 C 148.65625 179.003906 148.390625 180.164062 148.175781 181.339844 C 147.960938 182.511719 147.796875 183.691406 147.6875 184.882812 C 147.578125 186.070312 147.523438 187.261719 147.523438 188.453125 C 147.523438 196.042969 146.574219 203.511719 144.679688 210.863281 C 142.785156 218.214844 140 225.210938 136.328125 231.851562 C 136.09375 232.273438 135.898438 232.71875 135.75 233.179688 C 135.597656 233.640625 135.496094 234.109375 135.4375 234.59375 C 135.382812 235.074219 135.371094 235.558594 135.410156 236.039062 C 135.449219 236.523438 135.535156 237 135.667969 237.464844 C 135.800781 237.933594 135.976562 238.378906 136.199219 238.8125 C 136.417969 239.242188 136.679688 239.648438 136.980469 240.03125 C 137.285156 240.410156 137.617188 240.757812 137.988281 241.070312 C 138.359375 241.382812 138.753906 241.65625 139.179688 241.894531 C 139.605469 242.128906 140.046875 242.320312 140.507812 242.46875 C 140.972656 242.613281 141.441406 242.714844 141.925781 242.769531 C 142.40625 242.824219 142.890625 242.832031 143.371094 242.789062 C 143.855469 242.75 144.328125 242.660156 144.796875 242.527344 C 145.261719 242.390625 145.710938 242.214844 146.140625 241.988281 C 146.570312 241.765625 146.976562 241.503906 147.355469 241.199219 C 147.730469 240.898438 148.078125 240.558594 148.390625 240.1875 C 148.699219 239.816406 148.972656 239.417969 149.207031 238.992188 C 153.179688 231.792969 156.253906 224.230469 158.425781 216.300781 C 160.277344 218.234375 162.304688 219.960938 164.507812 221.484375 C 166.710938 223.007812 169.042969 224.292969 171.507812 225.339844 C 173.972656 226.390625 176.515625 227.179688 179.140625 227.714844 C 181.765625 228.246094 184.414062 228.511719 187.09375 228.503906 C 188.753906 228.496094 190.402344 228.390625 192.050781 228.179688 C 192.09375 228.175781 192.132812 228.175781 192.175781 228.171875 C 193.359375 228.015625 194.535156 227.808594 195.699219 227.546875 C 196.863281 227.289062 198.015625 226.976562 199.148438 226.613281 C 200.285156 226.25 201.40625 225.835938 202.503906 225.371094 C 203.601562 224.90625 204.679688 224.394531 205.730469 223.832031 C 206.785156 223.269531 207.8125 222.664062 208.808594 222.011719 C 209.808594 221.355469 210.773438 220.660156 211.710938 219.917969 C 212.644531 219.179688 213.546875 218.398438 214.410156 217.574219 C 215.277344 216.753906 216.101562 215.894531 216.890625 215 C 217.679688 214.101562 218.425781 213.171875 219.128906 212.210938 C 219.832031 211.246094 220.492188 210.253906 221.109375 209.230469 C 221.722656 208.207031 222.289062 207.160156 222.808594 206.085938 C 223.332031 205.011719 223.800781 203.917969 224.222656 202.800781 C 224.644531 201.683594 225.015625 200.550781 225.335938 199.402344 C 225.65625 198.253906 225.925781 197.09375 226.140625 195.917969 C 226.355469 194.746094 226.515625 193.5625 226.625 192.375 C 226.734375 191.1875 226.792969 189.996094 226.792969 188.804688 C 226.785156 188.152344 226.6875 187.511719 226.507812 186.886719 C 226.722656 186.058594 226.792969 185.222656 226.714844 184.371094 Z M 190.304688 213.5625 C 189.480469 213.671875 188.652344 213.738281 187.824219 213.765625 C 186.992188 213.789062 186.160156 213.773438 185.332031 213.714844 C 184.503906 213.660156 183.679688 213.558594 182.859375 213.421875 C 182.039062 213.28125 181.226562 213.097656 180.425781 212.878906 C 179.625 212.65625 178.835938 212.398438 178.0625 212.097656 C 177.285156 211.796875 176.527344 211.457031 175.785156 211.082031 C 175.042969 210.707031 174.324219 210.296875 173.625 209.847656 C 172.921875 209.398438 172.246094 208.917969 171.59375 208.402344 C 170.941406 207.886719 170.316406 207.339844 169.71875 206.761719 C 169.121094 206.183594 168.554688 205.578125 168.019531 204.941406 C 167.480469 204.308594 166.976562 203.648438 166.507812 202.960938 C 166.035156 202.277344 165.601562 201.570312 165.199219 200.839844 C 164.800781 200.113281 164.4375 199.363281 164.113281 198.601562 C 163.785156 197.835938 163.5 197.054688 163.253906 196.261719 C 163.003906 195.46875 162.796875 194.664062 162.632812 193.847656 C 162.464844 193.035156 162.339844 192.214844 162.253906 191.386719 C 162.238281 191.246094 162.191406 191.113281 162.167969 190.972656 C 162.1875 190.132812 162.25 189.296875 162.25 188.453125 C 162.25 187.703125 162.285156 186.953125 162.351562 186.207031 C 162.421875 185.460938 162.523438 184.71875 162.65625 183.980469 C 162.792969 183.242188 162.960938 182.511719 163.160156 181.789062 C 163.363281 181.066406 163.597656 180.351562 163.859375 179.648438 C 164.125 178.949219 164.421875 178.257812 164.75 177.585938 C 165.078125 176.910156 165.433594 176.25 165.820312 175.605469 C 166.207031 174.964844 166.621094 174.339844 167.0625 173.734375 C 167.507812 173.128906 167.976562 172.542969 168.472656 171.980469 C 168.964844 171.414062 169.488281 170.875 170.03125 170.359375 C 170.574219 169.839844 171.140625 169.351562 171.730469 168.882812 C 172.316406 168.417969 172.925781 167.980469 173.554688 167.570312 C 174.179688 167.15625 174.824219 166.777344 175.488281 166.421875 C 176.148438 166.070312 176.828125 165.746094 177.519531 165.453125 C 178.207031 165.164062 178.910156 164.902344 179.625 164.671875 C 180.339844 164.445312 181.066406 164.25 181.796875 164.085938 C 182.527344 163.921875 183.265625 163.789062 184.011719 163.691406 C 184.835938 163.585938 185.664062 163.519531 186.496094 163.492188 C 187.324219 163.46875 188.15625 163.484375 188.984375 163.542969 C 189.816406 163.597656 190.640625 163.699219 191.460938 163.839844 C 192.277344 163.976562 193.089844 164.160156 193.890625 164.378906 C 194.691406 164.601562 195.480469 164.863281 196.257812 165.160156 C 197.03125 165.460938 197.789062 165.800781 198.53125 166.175781 C 199.273438 166.550781 199.996094 166.964844 200.695312 167.410156 C 201.394531 167.859375 202.070312 168.34375 202.722656 168.859375 C 203.375 169.375 204 169.921875 204.597656 170.5 C 205.195312 171.078125 205.761719 171.683594 206.300781 172.316406 C 206.835938 172.953125 207.339844 173.613281 207.8125 174.296875 C 208.28125 174.984375 208.71875 175.691406 209.117188 176.417969 C 209.515625 177.148438 209.878906 177.894531 210.207031 178.660156 C 210.53125 179.425781 210.816406 180.207031 211.066406 181 C 211.3125 181.792969 211.519531 182.597656 211.6875 183.410156 C 211.851562 184.226562 211.980469 185.046875 212.0625 185.875 C 212.109375 186.277344 212.1875 186.671875 212.300781 187.058594 C 212.152344 187.632812 212.074219 188.214844 212.070312 188.804688 C 212.066406 189.554688 212.03125 190.304688 211.964844 191.050781 C 211.894531 191.796875 211.792969 192.539062 211.660156 193.277344 C 211.523438 194.015625 211.355469 194.746094 211.15625 195.46875 C 210.953125 196.191406 210.71875 196.90625 210.457031 197.609375 C 210.191406 198.308594 209.894531 199 209.566406 199.671875 C 209.238281 200.347656 208.882812 201.007812 208.496094 201.652344 C 208.109375 202.292969 207.695312 202.917969 207.253906 203.523438 C 206.808594 204.128906 206.339844 204.714844 205.84375 205.277344 C 205.351562 205.84375 204.828125 206.382812 204.285156 206.898438 C 203.742188 207.414062 203.175781 207.90625 202.585938 208.375 C 202 208.839844 201.390625 209.277344 200.761719 209.6875 C 200.136719 210.097656 199.492188 210.480469 198.828125 210.835938 C 198.167969 211.1875 197.488281 211.511719 196.800781 211.800781 C 196.109375 212.09375 195.40625 212.355469 194.691406 212.582031 C 193.976562 212.8125 193.253906 213.007812 192.519531 213.171875 C 191.789062 213.335938 191.050781 213.464844 190.304688 213.5625 Z M 190.304688 213.5625 " fill-opacity="1" fill-rule="nonzero"/></svg>