<svg viewBox="0 0 397.61 409.6" xmlns="http://www.w3.org/2000/svg"><path d="M346.85 155.07h34.01v24.17h-34.01zm-330.1 0h31.59v24.17H16.75z"/><path d="M349.5 321.87H48.12A12.08 12.08 0 0 1 36 309.79V42.47A42.52 42.52 0 0 1 78.5 0h240.61a42.52 42.52 0 0 1 42.47 42.47v267.32a12.08 12.08 0 0 1-12.08 12.08zM60.2 297.7h277.21V42.47a18.32 18.32 0 0 0-18.3-18.3H78.5a18.32 18.32 0 0 0-18.3 18.3z"/><path d="M349.38 397.52H48.23a36.15 36.15 0 0 1-36.14-36.16V176.24a10 10 0 0 1 15.46-8.35l162.7 106.65a15.6 15.6 0 0 0 17.12 0l162.7-106.65a10 10 0 0 1 15.46 8.35v185.12a36.16 36.16 0 0 1-36.15 36.16z"/><path d="M349.38 409.6H48.23A48.29 48.29 0 0 1 0 361.36V176.24a22 22 0 0 1 34.17-18.45l162.7 106.65a3.52 3.52 0 0 0 3.87 0l162.7-106.65a22 22 0 0 1 34.17 18.45v185.12a48.29 48.29 0 0 1-48.23 48.24zM24.17 180.13v181.23a24.1 24.1 0 0 0 24.06 24.07h301.15a24.09 24.09 0 0 0 24.06-24.07V180.13L214 284.65a27.72 27.72 0 0 1-30.37 0z"/><path d="M27.56 398.89a12.08 12.08 0 0 1-6.64-22.19l56.41-37a12.08 12.08 0 1 1 13.25 20.21l-56.4 37a12.06 12.06 0 0 1-6.62 2zm342.49 0a12 12 0 0 1-6.61-2l-162.7-106.63a3.53 3.53 0 0 0-3.87 0l-51.86 34A12.09 12.09 0 0 1 131.75 304l51.87-34a27.72 27.72 0 0 1 30.38 0l162.69 106.7a12.08 12.08 0 0 1-6.64 22.19zM259.23 97.07H138.38a12.09 12.09 0 1 1 0-24.17h120.85a12.09 12.09 0 1 1 0 24.17zm19.34 63.18H119a12.09 12.09 0 0 1 0-24.18h159.57a12.09 12.09 0 1 1 0 24.18z"/></svg>