<svg xmlns="http://www.w3.org/2000/svg" viewBox="0 0 512 498.37"><path class="lineal-fill" d="M235.25 49.75a119.84 119.84 0 218.86 36 NaN NaNcNaN NaN NaN NaN NaN NaNsNaN NaN NaN NaNa122.13 122.13 0 0-18 NaN NaNcNaN NaN NaN NaN NaN NaN NaN NaN NaN NaN NaN NaNlNaN NaNa84.7 84.7 0 165 194.4 NaN NaNvNaNhNaNvNaNa84.67 84.67 0 1-37.31 NaN NaNlNaN NaNsNaN NaN NaN NaNcNaN NaN NaN NaN NaN NaNz"/><path class="lineal-fill" d="M457.89 129.21a99.42 99.42 0 444.5 118 NaN NaNcNaN NaN NaN NaN NaN NaNsNaN NaN NaN NaNa99 99 0 0-14.74 NaN NaNcNaN NaN NaN NaN NaN NaN NaN NaN NaN NaN NaN NaNlNaN NaNa69.17 69.17 0 1-30.48 NaN NaNvNaNhNaNvNaNa69.14 69.14 0 1-30.48 NaN NaNlNaN NaNsNaN NaN NaN NaNcNaN NaN NaN NaN NaN NaNz"/><path class="lineal-stroke" d="M468.49 118.56a114.1 114.1 0 0-15.4-12.87 NaNc-21.46 NaN-43.33 NaN-67.53 NaNs-46.08 NaN-65 NaNa114.84 114.84 0 0-17 14.46 NaNlNaN NaNcNaN NaN NaN NaN NaN NaNa135.75 135.75 0 0-18.4 NaN NaNcNaN NaN NaN NaN NaN NaNsNaN NaN NaN NaNa137.77 137.77 0 51.85 41 NaN NaNcNaN NaN NaN NaN NaN NaN NaN NaN NaN NaN NaN NaN NaN NaN NaN NaN NaN NaNvNaNa15 15 0 15 15 NaN NaNhNaNa15 15 0 100-30.06 NaN NaNhNaNvNaNcNaN NaN NaN NaN NaN NaNa15 15 0 18.65-.64 NaN NaNlNaN NaNa84 84 0 74.11 0 NaN NaNlNaN NaNa15 15 0 18.76.58 NaN NaNcNaN NaN NaN NaN NaN NaN NaN NaN NaN NaN NaN NaNzm-395-56.68a107.06 107.06 0 115.82-13.5 NaN NaNcNaN NaN NaN NaN NaN NaNsNaN NaN NaN NaNa106.09 106.09 0 114.34 12 NaN NaNcNaN NaN NaN NaN NaN NaN NaN NaN NaN NaN NaN NaNlNaN NaNa99.81 99.81 0 20.93-31 NaN NaNcNaN NaN NaN NaN NaN NaN NaN NaN NaN NaN NaN NaN NaN NaN NaN NaN NaN NaN NaN NaN NaN NaN NaN NaNsNaN NaN NaN NaNlNaN NaNcNaN NaN NaN NaN NaN NaN NaN NaN NaN NaN NaN NaN NaN NaN NaN NaN NaN NaN NaN NaN NaN NaN NaN NaN NaN NaN NaN NaN NaN NaN NaN NaN NaN NaN NaN NaN NaN NaN NaN NaN NaN NaN NaN NaN NaN NaN NaN NaNsNaN NaN NaN NaNcNaN NaN NaN NaN NaN NaNvNaNa15 15 0 0-15 NaN NaNhNaNa15 15 0 0-15 NaN NaNvNaNcNaN NaN NaN NaN NaN NaN NaN NaN NaN NaN NaN NaN NaN NaN NaN NaN NaN NaN NaN NaN NaN NaN NaN NaN NaN NaN NaN NaN NaN NaN NaN NaN NaN NaN NaN NaN NaN NaN NaN NaN NaN NaN NaN NaN NaN NaN NaN NaN NaN NaN NaN NaN NaN NaN NaN NaN NaN NaN NaN NaN NaN NaN NaN NaN NaN NaNsNaN NaN NaN NaN NaN NaN NaN NaNcNaN NaN NaN NaN NaN NaN NaN NaN NaN NaN NaN NaN NaN NaN NaN NaN NaN NaNa99.79 99.79 0 20.91 31 NaN NaNlNaN NaNcNaN NaN NaN NaN NaN NaN NaN NaN NaN NaN NaN NaNzm120.59 186.34a69.61 69.61 0 1-88.6 0 70.16lNaN NaN NaN NaNqNaN NaN NaN NaN NaN NaN NaN NaNcNaN NaN NaN NaN NaN NaNsNaN NaN NaN NaN NaN NaN NaN NaNa87.677 87.677 0 1-1.42 NaN NaNcNaN NaN NaN NaN NaN NaNlNaN NaNcNaN NaN NaN NaN NaN NaN NaN NaN NaN NaN NaN NaN NaN NaN NaN NaN NaN NaN NaN NaN NaN NaN NaN NaN NaN NaN NaN NaN NaN NaN NaN NaN NaN NaN NaN NaN NaN NaN NaN NaN NaN NaN NaN NaN NaN NaN NaN NaNqNaN NaN NaN NaNvNaNhNaNvNaNqNaN NaN NaN NaNcNaN NaN NaN NaN NaN NaN NaN NaN NaN NaN NaN NaN NaN NaN NaN NaN NaN NaN NaN NaN NaN NaN NaN NaN NaN NaN NaN NaN NaN NaN NaN NaN NaN NaN NaN NaN NaN NaN NaN NaN NaN NaN NaN NaN NaN NaN NaN NaN NaN NaN NaN NaN NaN NaN NaN NaN NaN NaN NaN NaN NaN NaN NaN NaN NaN NaN NaN NaN NaN NaN NaN NaNsNaN NaN NaN NaN NaN NaN NaN NaN NaN NaN NaN NaNlNaN NaNa74.763 74.763 0 1-3.43 NaN NaNcNaN NaN NaN NaN NaN NaNlNaN NaNa70.86 70.86 0 1-11.43 NaN NaNzm-164 124.83c0-28.68 10.55-53.44 28.17-70.12 1 .84 1.63 1.36 1.85 1.53a15 15 0 19-.35 NaN NaNlNaN NaNa99.47 99.47 0 91.67 0 NaN NaNlNaN NaNa15 15 0 18.75.57 NaN NaNcNaN NaN NaN NaN NaN NaNa137.43 137.43 0 23.72 45.23 NaN NaNcNaN NaN NaN NaN NaN NaNvNaNhNaNzm323.57-83.88a54.55 54.55 0 1-8.9-9.32 NaNl.29 NaNc-.49 NaN-1 NaN-1.43 NaNa.21.21 0 10-.06 NaN NaNqNaN NaN NaN NaNlNaN NaNcNaN NaN NaN NaN NaN NaNsNaN NaN NaN NaN NaN NaN NaN NaN NaN NaN NaN NaNa49.2 49.2 0 1-1.23 NaN NaNlNaN NaNcNaN NaN NaN NaN NaN NaN NaN NaN NaN NaN NaN NaN NaN NaN NaN NaN NaN NaNlNaN NaNcNaN NaN NaN NaN NaN NaN NaN NaN NaN NaN NaN NaN NaN NaN NaN NaN NaN NaN NaN NaN NaN NaN NaN NaN NaN NaN NaN NaN NaN NaNvNaNhNaNvNaNcNaN NaN NaN NaN NaN NaN NaN NaN NaN NaN NaN NaN NaN NaN NaN NaN NaN NaN NaN NaN NaN NaN NaN NaN NaN NaN NaN NaN NaN NaN NaN NaN NaN NaN NaN NaN NaN NaN NaN NaN NaN NaN NaN NaN NaN NaN NaN NaNqNaN NaN NaN NaNcNaN NaN NaN NaN NaN NaN NaN NaN NaN NaN NaN NaN NaN NaN NaN NaN NaN NaN NaN NaN NaN NaN NaN NaNsNaN NaN NaN NaNlNaN NaNcNaN NaN NaN NaN NaN NaNvNaNcNaN NaN NaN NaN NaN NaN NaN NaN NaN NaN NaN NaNlNaN NaNa54.3 54.3 0 1-8.88 NaN NaNlNaN NaNzm99.7 18.35l-3.43-2.91a84.15 84.15 0 12.24-17.11 NaN NaNvNaNcNaN NaN NaN NaN NaN NaN NaN NaN NaN NaN NaN NaN NaN NaN NaN NaN NaN NaN NaN NaN NaN NaN NaN NaN NaN NaN NaN NaN NaN NaNlNaN NaNcNaN NaN NaN NaN NaN NaN NaN NaN NaN NaN NaN NaNlNaN NaNqNaN NaN NaN NaNcNaN NaN NaN NaN NaN NaNsNaN NaN NaN NaN NaN NaN NaN NaN NaN NaN NaN NaN NaN NaN NaN NaN NaN NaN NaN NaNcNaN NaN NaN NaN NaN NaN NaN NaN NaN NaN NaN NaN NaN NaN NaN NaN NaN NaNvNaNa15 15 0 0-15 NaN NaNhNaNa15 15 0 0-15 NaN NaNvNaNcNaN NaN NaN NaN NaN NaN NaN NaN NaN NaN NaN NaN NaN NaN NaN NaN NaN NaNsNaN NaN NaN NaN NaN NaN NaN NaNlNaN NaNcNaN NaN NaN NaN NaN NaNsNaN NaN NaN NaN NaN NaN NaN NaN NaN NaN NaN NaN NaN NaN NaN NaN NaN NaN NaN NaN NaN NaN NaN NaNcNaN NaN NaN NaN NaN NaN NaN NaN NaN NaN NaN NaNlNaN NaNcNaN NaN NaN NaN NaN NaNlNaN NaNcNaN NaN NaN NaN NaN NaN NaN NaN NaN NaN NaN NaNa84.25 84.25 0 12.22 17.08 NaN NaNlNaN NaNcNaN NaN NaN NaN NaN NaN NaN NaN NaN NaN NaN NaNa85.62 85.62 0 112.51-10.68 NaN NaNcNaN NaN NaN NaN NaN NaNsNaN NaN NaN NaNa84.57 84.57 0 111.34 9.48 NaN NaNcNaN NaN NaN NaN NaN NaN NaN NaN NaN NaN NaN NaNz"/></svg>