<svg viewBox="0 0 512 492.45" xmlns="http://www.w3.org/2000/svg"><path d="M80.52 492.45a15.19 15.19 0 0 1-15.19-15.19v-256a15.2 15.2 0 1 1 30.39 0v256a15.2 15.2 0 0 1-15.2 15.19zm0-355.52a15.19 15.19 0 0 1-15.19-15.19V80.53a15.2 15.2 0 0 1 30.39 0v41.21a15.2 15.2 0 0 1-15.2 15.19zM256 492.45a15.19 15.19 0 0 1-15.19-15.19v-94.19a15.19 15.19 0 1 1 30.38 0v94.19A15.19 15.19 0 0 1 256 492.45zm0-297.78a15.2 15.2 0 0 1-15.19-15.2V15.19a15.19 15.19 0 0 1 30.38 0v164.29A15.19 15.19 0 0 1 256 194.67zm175.48 297.78a15.2 15.2 0 0 1-15.2-15.19V263.79a15.2 15.2 0 0 1 30.39 0v213.47a15.19 15.19 0 0 1-15.19 15.19zm0-350.96a15.2 15.2 0 0 1-15.2-15.19V15.19a15.2 15.2 0 0 1 30.39 0V126.3a15.19 15.19 0 0 1-15.19 15.19z"/><circle cx="80.52" cy="80.53" r="65.33"/><path d="M80.52 161.05a80.52 80.52 0 1 1 80.53-80.52 80.61 80.61 0 0 1-80.53 80.52zm0-130.66a50.14 50.14 0 1 0 50.14 50.14 50.19 50.19 0 0 0-50.14-50.14zM256 398.26a80.48 80.48 0 1 1 70.54-41.66 15.19 15.19 0 1 1-26.6-14.68A50.15 50.15 0 1 0 256 367.87a15.2 15.2 0 0 1 0 30.39z"/><circle cx="431.48" cy="126.29" r="65.33"/><path d="M431.48 206.82A80.52 80.52 0 1 1 512 126.3a80.62 80.62 0 0 1-80.52 80.52zm0-130.66a50.14 50.14 0 1 0 50.13 50.14 50.19 50.19 0 0 0-50.13-50.14z"/></svg>