<svg viewBox="0 0 409.6 403.98" xmlns="http://www.w3.org/2000/svg"><path d="M300.86 202l-102.75-66.09v38.86H13v54.45h185.11v38.85z"/><path d="M198.11 281.1a13 13 0 0 1-13-13v-25.86H13a13 13 0 0 1-13-13v-54.48a13 13 0 0 1 13-13h172.09v-25.85a13 13 0 0 1 20.07-11L307.9 191a13 13 0 0 1 0 21.91L205.16 279a13 13 0 0 1-7 2.07zM26.05 216.19h172.06a13 13 0 0 1 13 13v15L276.78 202l-65.64-42.22v15a13 13 0 0 1-13 13H26.05z"/><path d="M396.57 404H93.75a13 13 0 0 1-13-13v-65.93a13 13 0 0 1 26 0v52.87h276.8V26.05H106.77v52.86a13 13 0 1 1-26 0V13a13 13 0 0 1 13-13h302.8a13 13 0 0 1 13 13v378a13 13 0 0 1-13 13z"/></svg>