<svg viewBox="0 0 512 512" xmlns="http://www.w3.org/2000/svg"><path d="M449.87 151.95l33.06 123.38-123.38-33.06z"/><path d="M497.89 270.25L465.1 147.87a15.76 15.76 0 0 0-26.38-7.07l-12.05 12-80.59-80.55a15.78 15.78 0 0 0-22.31 0l-43.92 43.93a15.76 15.76 0 0 0 0 22.3L338.33 197a15.77 15.77 0 1 0 22.3-22.3l-47.33-47.37 21.62-21.63 69.44 69.45-56 56a15.77 15.77 0 0 0 7.07 26.38l123.38 33.06a15.83 15.83 0 0 0 4.08.54h.19a15.77 15.77 0 0 0 15.62-15.77 15.51 15.51 0 0 0-.81-5.11zM390 234.11l51.69-51.69L460.62 253zM274.03 367.39h77.99v128.84h-77.99z"/><path d="M496.23 416h-78a15.77 15.77 0 1 0 0 31.54h62.22v32.88H367.8V367.39a15.78 15.78 0 0 0-15.8-15.77h-78a15.77 15.77 0 0 0-15.77 15.77v113.07h-34.64V273.35a15.77 15.77 0 0 0-15.77-15.77h-78a15.77 15.77 0 0 0-15.77 15.77v134a15.77 15.77 0 1 0 31.54 0V289.12h46.45v191.34H31.54V15.77a15.77 15.77 0 0 0-31.54 0v480.46A15.77 15.77 0 0 0 15.77 512h480.46A15.77 15.77 0 0 0 512 496.23v-64.42A15.77 15.77 0 0 0 496.23 416zM289.8 480.46v-97.29h46.45v97.29z"/></svg>