<svg viewBox="0 0 409.59 409.6" xmlns="http://www.w3.org/2000/svg"><path d="M381.14 409.59h-122.9a28.48 28.48 0 0 1-28.45-28.45v-122.9a28.49 28.49 0 0 1 28.45-28.45h73.33a12.42 12.42 0 1 1 0 24.84h-73.33a3.62 3.62 0 0 0-3.62 3.61v122.9a3.63 3.63 0 0 0 3.62 3.62h122.9a3.63 3.63 0 0 0 3.62-3.62v-61.45a12.42 12.42 0 1 1 24.83 0v61.45a28.48 28.48 0 0 1-28.45 28.45zM12.42 151.35V28.46a16 16 0 0 1 16-16h122.93a16 16 0 0 1 16 16v122.89a16 16 0 0 1-16 16H28.46a16 16 0 0 1-16-16z"/><path d="M151.35 179.81H28.46A28.5 28.5 0 0 1 0 151.35V28.46A28.5 28.5 0 0 1 28.46 0h122.89a28.5 28.5 0 0 1 28.46 28.46v122.89a28.5 28.5 0 0 1-28.46 28.46zM28.46 24.84a3.62 3.62 0 0 0-3.62 3.62v122.89a3.62 3.62 0 0 0 3.62 3.65h122.89a3.63 3.63 0 0 0 3.62-3.62V28.46a3.62 3.62 0 0 0-3.62-3.62zm213.75 126.51V28.46a16 16 0 0 1 16-16h122.9a16 16 0 0 1 16 16v122.89a16 16 0 0 1-16 16H258.24a16 16 0 0 1-16-16z"/><path d="M381.14 179.81h-122.9a28.49 28.49 0 0 1-28.45-28.46V28.46A28.49 28.49 0 0 1 258.24 0h122.9a28.49 28.49 0 0 1 28.45 28.46v122.89a28.49 28.49 0 0 1-28.45 28.46zm-122.9-155a3.63 3.63 0 0 0-3.62 3.62v122.92a3.63 3.63 0 0 0 3.62 3.62h122.9a3.63 3.63 0 0 0 3.62-3.62V28.46a3.63 3.63 0 0 0-3.62-3.62zM12.42 381.15v-122.9a16 16 0 0 1 16-16h122.93a16 16 0 0 1 16 16v122.9a16 16 0 0 1-16 16H28.46a16 16 0 0 1-16-16z"/><path d="M151.35 409.6H28.46A28.49 28.49 0 0 1 0 381.15v-122.9a28.5 28.5 0 0 1 28.46-28.46h122.89a28.5 28.5 0 0 1 28.46 28.46v122.9a28.49 28.49 0 0 1-28.46 28.45zm-122.89-155a3.62 3.62 0 0 0-3.62 3.62v122.9a3.62 3.62 0 0 0 3.62 3.61h122.89a3.62 3.62 0 0 0 3.62-3.61V258.25a3.62 3.62 0 0 0-3.62-3.62z"/></svg>