<svg viewBox="0 0 341.63 512" xmlns="http://www.w3.org/2000/svg"><path d="M170.81 313.11A111.59 111.59 0 0 1 59.34 201.65v-90.18A111.5 111.5 0 0 1 274.28 70.1a14.29 14.29 0 1 1-26.52 10.67 82.86 82.86 0 0 0-159.83 30.7v90.17a82.88 82.88 0 0 0 165.76 0 14.3 14.3 0 0 1 28.59 0 111.59 111.59 0 0 1-111.47 111.47z"/><path d="M170.81 372.46C76.63 372.46 0 295.83 0 201.65v-45.09a14.3 14.3 0 1 1 28.59 0v45.09c0 78.42 63.8 142.22 142.22 142.22a14.3 14.3 0 1 1 0 28.59zM248 352.1a14.29 14.29 0 0 1-7.08-26.72A142.73 142.73 0 0 0 313 201.64v-45.08a14.3 14.3 0 1 1 28.59 0v45.08A171.37 171.37 0 0 1 255 350.23a14.21 14.21 0 0 1-7 1.87z"/><path d="M73.64 156.56v45.09c0 53.44 43.73 97.17 97.17 97.17 53.45 0 97.18-43.73 97.18-97.17v-45.09z"/><path d="M170.81 313.11A111.59 111.59 0 0 1 59.34 201.65v-45.09a14.3 14.3 0 0 1 14.3-14.3H268a14.29 14.29 0 0 1 14.29 14.3v45.09a111.59 111.59 0 0 1-111.48 111.46zM87.93 170.85v30.79a82.88 82.88 0 0 0 165.76 0v-30.79zm82.88 305.54a14.29 14.29 0 0 1-14.29-14.29V358.16a14.3 14.3 0 0 1 28.59 0V462.1a14.29 14.29 0 0 1-14.3 14.29z"/><path d="M256.05 497.71H85.57a31.9 31.9 0 0 1-31.89-31.9 31.9 31.9 0 0 1 31.89-31.9h170.48a31.9 31.9 0 0 1 31.9 31.9 31.9 31.9 0 0 1-31.9 31.9z"/><path d="M256.05 512H85.57a46.19 46.19 0 1 1 0-92.38h170.48a46.19 46.19 0 0 1 0 92.38zM85.57 448.21a17.6 17.6 0 1 0 0 35.2h170.48a17.6 17.6 0 1 0 0-35.2z"/></svg>