<svg viewBox="0 0 512 509.47" xmlns="http://www.w3.org/2000/svg"><path d="M230.79 462.77a14.57 14.57 0 1 1 0-29.14 4.55 4.55 0 0 0 4.53-4.53v-124a4.54 4.54 0 0 0-4.53-4.53H33.68a4.53 4.53 0 0 0-4.53 4.53v124a4.53 4.53 0 0 0 4.53 4.53h147.06a14.57 14.57 0 0 1 0 29.14H33.68A33.71 33.71 0 0 1 0 429.1v-124a33.72 33.72 0 0 1 33.68-33.68h197.1a33.72 33.72 0 0 1 33.68 33.68v124a33.71 33.71 0 0 1-33.67 33.67z"/><path d="M82.61 448.2h99.26v46.69H82.61z"/><path d="M181.86 509.47H82.61A14.58 14.58 0 0 1 68 494.9v-46.7a14.57 14.57 0 0 1 14.58-14.57h99.25a14.57 14.57 0 0 1 14.57 14.57v46.7a14.57 14.57 0 0 1-14.54 14.57zm-84.68-29.15h70.1v-17.55h-70.1z"/><path d="M210.67 509.47H53.79a14.58 14.58 0 0 1 0-29.15h156.88a14.58 14.58 0 0 1 0 29.15zm20.12-318.11a14.58 14.58 0 1 1 0-29.15 4.54 4.54 0 0 0 4.53-4.53v-124a4.54 4.54 0 0 0-4.53-4.53H33.68a4.53 4.53 0 0 0-4.53 4.53v124a4.53 4.53 0 0 0 4.53 4.53h147.06a14.58 14.58 0 0 1 0 29.15H33.68A33.72 33.72 0 0 1 0 157.68v-124A33.72 33.72 0 0 1 33.68 0h197.1a33.72 33.72 0 0 1 33.68 33.68v124a33.72 33.72 0 0 1-33.67 33.68z"/><path d="M82.61 176.79h99.26v46.69H82.61z"/><path d="M181.86 238.06H82.61A14.58 14.58 0 0 1 68 223.48v-46.69a14.58 14.58 0 0 1 14.58-14.58h99.25a14.58 14.58 0 0 1 14.57 14.58v46.69a14.58 14.58 0 0 1-14.54 14.58zm-84.68-29.15h70.1v-17.55h-70.1z"/><path d="M210.67 238.06H53.79a14.58 14.58 0 0 1 0-29.15h156.88a14.58 14.58 0 0 1 0 29.15zm203.54 143.61h-92.54a14.58 14.58 0 0 1 0-29.15h78V110.25h-78a14.57 14.57 0 1 1 0-29.14h92.54a14.57 14.57 0 0 1 14.58 14.57v271.41a14.58 14.58 0 0 1-14.58 14.58z"/><path d="M481.62 237.48a35.4 35.4 0 0 0-48.44-47.31 55.53 55.53 0 0 0-98 46.15 30.18 30.18 0 0 0-18.18 27.6A30.17 30.17 0 0 0 347.06 294h120.29a30.17 30.17 0 0 0 30.08-30.07 30.15 30.15 0 0 0-15.81-26.45z"/><path d="M467.35 308.57H347.06a44.62 44.62 0 0 1-27.62-79.69c-.1-1.52-.15-3-.15-4.57A70.11 70.11 0 0 1 437.16 173a50 50 0 0 1 61.72 59.37 44.61 44.61 0 0 1-31.53 76.21zm-78-125.22a41 41 0 0 0-40 49.83 14.56 14.56 0 0 1-8.43 16.5 15.49 15.49 0 0 0 6.09 29.74h120.34a15.47 15.47 0 0 0 7.31-29.13 14.59 14.59 0 0 1-6-19.51 20.54 20.54 0 0 0 2.32-9.55 20.84 20.84 0 0 0-20.82-20.82 20.49 20.49 0 0 0-10 2.54 14.58 14.58 0 0 1-18.49-3.81 40.72 40.72 0 0 0-32.27-15.79z"/></svg>