<svg viewBox="0 0 499.03 512" xmlns="http://www.w3.org/2000/svg"><path d="M249.52 125.57a62.79 62.79 0 1 1 62.78-62.78 62.85 62.85 0 0 1-62.78 62.78zm0-97a34.25 34.25 0 1 0 34.24 34.25 34.28 34.28 0 0 0-34.24-34.28z"/><path d="M424 512H35.75A35.78 35.78 0 0 1 0 476.25V105.94A35.78 35.78 0 0 1 35.75 70.2h427.53A35.79 35.79 0 0 1 499 105.94v310.34a14.27 14.27 0 0 1-28.54 0V105.94a7.21 7.21 0 0 0-7.21-7.2H35.75a7.21 7.21 0 0 0-7.21 7.2v370.31a7.21 7.21 0 0 0 7.21 7.21H424a14.27 14.27 0 0 1 0 28.54z"/><path d="M484.76 157.29v-51.35a21.48 21.48 0 0 0-21.48-21.47H35.75a21.47 21.47 0 0 0-21.48 21.47v51.35z"/><path d="M484.76 171.56H14.27A14.27 14.27 0 0 1 0 157.29v-51.35A35.79 35.79 0 0 1 35.75 70.2h427.53A35.79 35.79 0 0 1 499 105.94v51.35a14.27 14.27 0 0 1-14.24 14.27zM28.54 143h442v-37.06a7.21 7.21 0 0 0-7.21-7.2H35.75a7.21 7.21 0 0 0-7.21 7.2zm88.39 142h-7.61a31.15 31.15 0 0 1-31.15-31.16 31.15 31.15 0 0 1 31.15-31.15h7.61a31.15 31.15 0 0 1 31.15 31.15A31.14 31.14 0 0 1 116.93 285z"/><path d="M116.93 299.27h-7.61a45.43 45.43 0 0 1 0-90.85h7.61a45.43 45.43 0 1 1 0 90.85zM109.32 237a16.89 16.89 0 0 0 0 33.77h7.61a16.89 16.89 0 1 0 0-33.77zm175.16 62.27A14.27 14.27 0 0 1 270.21 285v-48h-41.39v48a14.27 14.27 0 1 1-28.53 0v-62.31a14.26 14.26 0 0 1 14.26-14.27h69.93a14.27 14.27 0 0 1 14.27 14.27V285a14.27 14.27 0 0 1-14.27 14.27zm66.46-76.58h69.92V285h-69.92z"/><path d="M420.86 299.27h-69.92A14.27 14.27 0 0 1 336.67 285v-62.31a14.27 14.27 0 0 1 14.27-14.27h69.92a14.27 14.27 0 0 1 14.27 14.27V285a14.27 14.27 0 0 1-14.27 14.27zm-55.65-28.54h41.39V237h-41.39zM78.16 353.97h69.92v62.31H78.16z"/><path d="M148.09 430.55H78.17a14.27 14.27 0 0 1-14.27-14.27V354a14.27 14.27 0 0 1 14.27-14.3h69.92a14.27 14.27 0 0 1 14.27 14.3v62.31a14.27 14.27 0 0 1-14.27 14.24zM92.44 402h41.38v-33.76H92.44zm160.88 14.28h-7.61a31.16 31.16 0 0 1-31.16-31.16A31.16 31.16 0 0 1 245.71 354h7.61a31.15 31.15 0 0 1 31.15 31.15 31.14 31.14 0 0 1-31.15 31.13z"/><path d="M253.32 430.55h-7.61a45.43 45.43 0 0 1 0-90.85h7.61a45.43 45.43 0 1 1 0 90.85zm-7.61-62.31a16.89 16.89 0 1 0 0 33.77h7.61a16.89 16.89 0 0 0 0-33.77zm175.15 62.31a14.27 14.27 0 0 1-14.26-14.27v-48h-41.39v48a14.27 14.27 0 1 1-28.54 0V354a14.27 14.27 0 0 1 14.27-14.27h69.92A14.27 14.27 0 0 1 435.13 354v62.31a14.27 14.27 0 0 1-14.27 14.24z"/></svg>