<svg viewBox="0 0 512 512" xmlns="http://www.w3.org/2000/svg"><path d="M196.19 116.46L319.57 83.4l-33.06 123.38z"/><path d="M330.72 72.25a15.72 15.72 0 0 0-15.23-4.08L192.1 101.23a15.77 15.77 0 0 0-7.1 26.38l12.05 12-80.6 80.59a15.79 15.79 0 0 0 0 22.31l43.93 43.93a15.8 15.8 0 0 0 22.31 0L241.2 228a15.77 15.77 0 0 0-22.31-22.3L171.56 253l-21.62-21.6 69.44-69.4 56 56a15.77 15.77 0 0 0 26.39-7.08L334.8 87.48a15.77 15.77 0 0 0-4.08-15.23zm-52.38 104.06l-51.69-51.69 70.61-18.92zm-4.31 191.08h77.99v128.84h-77.99z"/><path d="M496.23 423.18A15.78 15.78 0 0 0 512 407.4v-134a15.77 15.77 0 0 0-15.77-15.77h-78a15.78 15.78 0 0 0-15.78 15.77v207.06H367.8V367.39a15.77 15.77 0 0 0-15.8-15.77h-78a15.77 15.77 0 0 0-15.77 15.77v113.07H145.6v-32.88h62.22a15.77 15.77 0 1 0 0-31.54h-78a15.77 15.77 0 0 0-15.77 15.77v48.65H31.54V15.77a15.77 15.77 0 0 0-31.54 0v480.46A15.77 15.77 0 0 0 15.77 512h480.46a15.77 15.77 0 0 0 0-31.54H434V289.12h46.45V407.4a15.78 15.78 0 0 0 15.78 15.78zM289.8 480.46v-97.29h46.45v97.29z"/></svg>