<svg xmlns="http://www.w3.org/2000/svg" viewBox="0 0 334.88 409.6"><path class="lineal-fill" d="M153.66 39.88H40.37a29.34 29.34 0 11 69.22 NaN NaNvNaNhNaN"/><path class="lineal-stroke" d="M150.25 114.85H11A11 11 0 1-11 0 NaNvNaNa40.42 40.42 0 140.37-40.37 NaN NaNhNaNa11 11 0 10 22 NaN NaNhNaNa18.34 18.34 0 0-18.32 NaN NaNvNaNhNaNa11 11 0 10 22 NaN NaNz"/><path class="lineal-fill" d="M11 329.92v39.31a29.34 29.34 0 29.35 29.34 NaN NaNhNaNa29.33 29.33 0 29.34-29.34 NaN NaNvNaNhNaN"/><path class="lineal-stroke" d="M206.82 409.6H40.37a40.42 40.42 0 10 369.23 NaN NaNvNaNa11 11 0 122.05 0 NaN NaNvNaNa18.34 18.34 0 18.32 18.32 NaN NaNhNaNa18.34 18.34 0 18.32-18.32 NaN NaNvNaNhNaNa11 11 0 10-22.05 NaN NaNhNaNa11 11 0 111 11 NaN NaNvNaNa40.42 40.42 0 1-40.37 NaN NaNz"/><path class="lineal-stroke" d="M141 375.1h-33.91a11 11 0 10-22.05 NaN NaNhNaNa11 11 0 10 22.05 NaN NaNzM11 344.37A11 11 0 1-11 0 NaNvNaNa11 11 0 122.05 0 NaN NaNvNaNa11 11 0 1-11 NaN NaNzm225.16 9.73a11 11 0 1-11-11 NaNvNaNa11 11 0 122.05 0 NaN NaNvNaNa11 11 0 1-11 NaN NaNzm1.44-111.91a25 25 0 1-10.6-2.32 NaNc-34.35 NaN-94.99 NaN-94.99 NaNvNaNa15.05 15.05 0 115.33-15.1 17.3 NaNvNaNa2.13 44.13 44.13 0 38-21.4 NaN 21.6 21.6 0 1230.77 0 NaN NaNhNaNa21.62 21.62 0 118.34 10.35 NaN NaNlNaN NaNa-2.29 15.18 15.18 0 120 NaN NaNvNaNcNaN NaN NaN NaN NaN NaNa25 25 0 1-10.56 NaN NaNzM162.38 52.72v100.82c0 23.85 39.79 50.62 73.87 66.3a3.26 3.26 0 2.7 0 NaN NaNcNaN NaN NaN NaN NaN NaNvNaNa66.77 66.77 0 1-12.08 NaN NaNlNaN NaNhNaNa66 66 0 1-56.67 NaN NaNlNaN NaNz"/></svg>