<svg viewBox="0 0 328.98 409.6" xmlns="http://www.w3.org/2000/svg"><path d="M10.66 339A10.66 10.66 0 0 1 0 328.33V42.42A42.47 42.47 0 0 1 42.42 0H222.6A42.47 42.47 0 0 1 265 42.42v13.85a10.66 10.66 0 1 1-21.32 0V42.42a21.12 21.12 0 0 0-21.1-21.1H42.42a21.13 21.13 0 0 0-21.1 21.1v285.91A10.66 10.66 0 0 1 10.66 339z"/><path d="M10.66 324.63v42.55a31.76 31.76 0 0 0 31.76 31.76H222.6a31.77 31.77 0 0 0 31.77-31.76v-42.55z"/><path d="M222.6 409.6H42.42A42.47 42.47 0 0 1 0 367.18v-42.55A10.66 10.66 0 0 1 10.66 314h243.71A10.66 10.66 0 0 1 265 324.63v42.55a42.47 42.47 0 0 1-42.4 42.42zM21.32 335.28v31.9a21.13 21.13 0 0 0 21.1 21.1H222.6a21.13 21.13 0 0 0 21.11-21.1v-31.9z"/><path d="M151.35 372.25h-36.7a10.66 10.66 0 0 1 0-21.32h36.7a10.66 10.66 0 1 1 0 21.32zm103.02-22.72a10.66 10.66 0 0 1-10.66-10.66v-39.56a10.66 10.66 0 0 1 21.32 0v39.56a10.67 10.67 0 0 1-10.66 10.66zm50.43-87.83H203.93a13.52 13.52 0 0 1-13.52-13.52v-79.61a13.52 13.52 0 0 1 13.52-13.52H304.8a13.52 13.52 0 0 1 13.52 13.52v79.61a13.52 13.52 0 0 1-13.52 13.52z"/><path d="M304.8 272.36H203.93a24.2 24.2 0 0 1-24.18-24.18v-79.61a24.2 24.2 0 0 1 24.18-24.18H304.8a24.2 24.2 0 0 1 24.2 24.18v79.61a24.2 24.2 0 0 1-24.18 24.18zM203.93 165.71a2.87 2.87 0 0 0-2.86 2.86v79.61a2.86 2.86 0 0 0 2.86 2.86H304.8a2.86 2.86 0 0 0 2.86-2.86v-79.61a2.87 2.87 0 0 0-2.86-2.86z"/><path d="M207.07 165.71a10.66 10.66 0 0 1-10.66-10.66v-43.2A28.59 28.59 0 0 1 225 83.3h58.8a28.59 28.59 0 0 1 28.55 28.55v2a10.66 10.66 0 1 1-21.32 0v-2a7.24 7.24 0 0 0-7.23-7.23H225a7.24 7.24 0 0 0-7.23 7.23v43.2a10.66 10.66 0 0 1-10.66 10.66zm47.3 60.29a10.66 10.66 0 0 1-10.66-10.66v-16.86a10.66 10.66 0 1 1 21.32 0v16.83A10.67 10.67 0 0 1 254.37 226z"/></svg>