<svg viewBox="0 0 357.51 409.6" xmlns="http://www.w3.org/2000/svg"><path d="M135 260.57A130.42 130.42 0 0 1 4.76 130.29C4.76 58.45 63.2 0 135 0s130.33 58.45 130.33 130.29a129.66 129.66 0 0 1-22.23 72.81 12 12 0 0 1-20-13.47 106.22 106.22 0 1 0-88.1 46.86 12 12 0 1 1 0 24.08z"/><path d="M161.8 304.57h-53.51l-27.45-67.71h108.4z"/><path d="M161.8 316.61h-53.51a12.05 12.05 0 0 1-11.16-7.52l-27.44-67.7a12 12 0 0 1 11.15-16.57h108.4a12 12 0 0 1 11.16 16.57l-27.4 67.7a12.06 12.06 0 0 1-11.16 7.52zm-45.4-24.08h37.29l17.68-43.63H98.71z"/><path d="M187.07 282.78H83a12 12 0 1 1 0-24.08h104.07a12 12 0 0 1 0 24.08zm49.86 114.78H33.16A21.11 21.11 0 0 1 12 376.45v-50.77a21.12 21.12 0 0 1 21.12-21.11h203.81a21.12 21.12 0 0 1 21.12 21.11v50.77a21.12 21.12 0 0 1-21.12 21.11z"/><path d="M236.93 409.6H33.16A33.19 33.19 0 0 1 0 376.45v-50.77a33.19 33.19 0 0 1 33.16-33.15h203.77a33.19 33.19 0 0 1 33.16 33.15v50.77a33.19 33.19 0 0 1-33.16 33.15zm-203.77-93a9.08 9.08 0 0 0-9.08 9.07v50.77a9.08 9.08 0 0 0 9.08 9.07h203.77a9.08 9.08 0 0 0 9.08-9.07v-50.76a9.09 9.09 0 0 0-9.08-9.07zm289.93 46.5a34.42 34.42 0 1 1 34.42-34.42 34.46 34.46 0 0 1-34.42 34.42zm0-44.76a10.34 10.34 0 1 0 10.34 10.34 10.35 10.35 0 0 0-10.34-10.34z"/><path d="M323.09 407.87a34.43 34.43 0 1 1 34.42-34.42 34.46 34.46 0 0 1-34.42 34.42zm0-44.77a10.35 10.35 0 1 0 10.34 10.35 10.36 10.36 0 0 0-10.34-10.35z"/></svg>