<svg viewBox="0 0 512 512" xmlns="http://www.w3.org/2000/svg"><path d="M288.37 276.32h-55.49V209.8a27.74 27.74 0 0 1 27.74-27.75 27.74 27.74 0 0 1 27.75 27.75z"/><path d="M288.37 291.15h-55.49a14.83 14.83 0 0 1-14.83-14.83V209.8a42.58 42.58 0 1 1 85.15 0v66.52a14.83 14.83 0 0 1-14.83 14.83zm-40.66-29.66h25.83V209.8a12.92 12.92 0 1 0-25.83 0z"/><path d="M343.86 276.32h-55.49V176.5a27.74 27.74 0 0 1 27.74-27.74 27.74 27.74 0 0 1 27.75 27.74z"/><path d="M343.86 291.15h-55.49a14.83 14.83 0 0 1-14.83-14.83V176.5a42.58 42.58 0 0 1 85.15 0v99.82a14.83 14.83 0 0 1-14.83 14.83zm-40.66-29.66H329v-85a12.92 12.92 0 0 0-25.83 0v85z"/><path d="M399.35 291.15h-55.49A14.83 14.83 0 0 1 329 276.32V143.2a42.58 42.58 0 0 1 85.15 0V210a14.83 14.83 0 1 1-29.66 0v-66.8a12.92 12.92 0 0 0-25.83 0v118.29h40.66a14.83 14.83 0 0 1 0 29.66z"/><path d="M316.11 391.77c-108 0-195.88-87.87-195.88-195.88S208.1 0 316.11 0 512 87.87 512 195.89a194.21 194.21 0 0 1-18.6 83.41 14.83 14.83 0 1 1-26.83-12.65 164.77 164.77 0 0 0 15.77-70.76c0-91.66-74.57-166.23-166.23-166.23s-166.22 74.57-166.22 166.23 74.56 166.22 166.22 166.22A165.22 165.22 0 0 0 411.55 332a14.83 14.83 0 0 1 17.05 24.27 194.71 194.71 0 0 1-112.49 35.5z"/><path d="M142.6 384.23a14.84 14.84 0 0 1-10.48-25.32L177 314.07a14.83 14.83 0 0 1 21 21l-44.84 44.84a14.76 14.76 0 0 1-10.56 4.32z"/><path d="M69.28 497.17l-54.45-54.45L95 362.59a38.49 38.49 0 0 1 54.45 0 38.49 38.49 0 0 1 0 54.45z"/><path d="M69.28 512a14.79 14.79 0 0 1-10.48-4.34L4.34 453.21a14.84 14.84 0 0 1 0-21l80.13-80.11a53.34 53.34 0 0 1 75.43 75.43l-80.13 80.13A14.81 14.81 0 0 1 69.28 512zM35.8 442.72l33.48 33.48 69.64-69.64a23.67 23.67 0 1 0-33.48-33.48z"/></svg>